<svg width="182" height="53" viewBox="0 0 182 53" fill="none" xmlns="http://www.w3.org/2000/svg">
<path d="M10.728 17.432C11.624 17.592 12.384 18.064 13.008 18.848C13.632 19.632 13.944 20.52 13.944 21.512C13.944 22.36 13.72 23.128 13.272 23.816C12.84 24.488 12.208 25.024 11.376 25.424C10.544 25.808 9.576 26 8.472 26H1.8V9.32H8.16C9.296 9.32 10.272 9.512 11.088 9.896C11.904 10.28 12.52 10.8 12.936 11.456C13.352 12.096 13.56 12.816 13.56 13.616C13.56 14.576 13.304 15.376 12.792 16.016C12.28 16.656 11.592 17.128 10.728 17.432ZM4.536 16.328H7.92C8.816 16.328 9.512 16.128 10.008 15.728C10.52 15.312 10.776 14.72 10.776 13.952C10.776 13.2 10.52 12.616 10.008 12.2C9.512 11.768 8.816 11.552 7.92 11.552H4.536V16.328ZM8.232 23.768C9.16 23.768 9.888 23.544 10.416 23.096C10.944 22.648 11.208 22.024 11.208 21.224C11.208 20.408 10.928 19.76 10.368 19.28C9.808 18.8 9.064 18.56 8.136 18.56H4.536V23.768H8.232ZM16.0052 19.328C16.0052 18 16.2772 16.824 16.8212 15.8C17.3812 14.776 18.1332 13.984 19.0772 13.424C20.0372 12.848 21.0932 12.56 22.2452 12.56C23.2852 12.56 24.1892 12.768 24.9572 13.184C25.7412 13.584 26.3652 14.088 26.8292 14.696V12.776H29.5892V26H26.8292V24.032C26.3652 24.656 25.7332 25.176 24.9332 25.592C24.1332 26.008 23.2212 26.216 22.1972 26.216C21.0612 26.216 20.0212 25.928 19.0772 25.352C18.1332 24.76 17.3812 23.944 16.8212 22.904C16.2772 21.848 16.0052 20.656 16.0052 19.328ZM26.8292 19.376C26.8292 18.464 26.6372 17.672 26.2532 17C25.8852 16.328 25.3972 15.816 24.7892 15.464C24.1812 15.112 23.5252 14.936 22.8212 14.936C22.1172 14.936 21.4612 15.112 20.8532 15.464C20.2452 15.8 19.7492 16.304 19.3652 16.976C18.9972 17.632 18.8132 18.416 18.8132 19.328C18.8132 20.24 18.9972 21.04 19.3652 21.728C19.7492 22.416 20.2452 22.944 20.8532 23.312C21.4772 23.664 22.1332 23.84 22.8212 23.84C23.5252 23.84 24.1812 23.664 24.7892 23.312C25.3972 22.96 25.8852 22.448 26.2532 21.776C26.6372 21.088 26.8292 20.288 26.8292 19.376ZM45.0868 12.776L36.9748 32.216H34.1428L36.8308 25.784L31.6228 12.776H34.6708L38.3908 22.856L42.2548 12.776H45.0868ZM50.3436 15.008V22.328C50.3436 22.824 50.4556 23.184 50.6796 23.408C50.9196 23.616 51.3196 23.72 51.8796 23.72H53.5596V26H51.3996C50.1676 26 49.2236 25.712 48.5676 25.136C47.9116 24.56 47.5836 23.624 47.5836 22.328V15.008H46.0236V12.776H47.5836V9.488H50.3436V12.776H53.5596V15.008H50.3436ZM58.8173 14.696C59.2173 14.024 59.7453 13.504 60.4013 13.136C61.0733 12.752 61.8653 12.56 62.7773 12.56V15.392H62.0813C61.0093 15.392 60.1933 15.664 59.6333 16.208C59.0893 16.752 58.8173 17.696 58.8173 19.04V26H56.0813V12.776H58.8173V14.696ZM77.4122 19.064C77.4122 19.56 77.3802 20.008 77.3162 20.408H67.2122C67.2922 21.464 67.6842 22.312 68.3882 22.952C69.0922 23.592 69.9562 23.912 70.9802 23.912C72.4522 23.912 73.4922 23.296 74.1002 22.064H77.0522C76.6522 23.28 75.9242 24.28 74.8682 25.064C73.8282 25.832 72.5322 26.216 70.9802 26.216C69.7162 26.216 68.5802 25.936 67.5722 25.376C66.5802 24.8 65.7962 24 65.2202 22.976C64.6602 21.936 64.3802 20.736 64.3802 19.376C64.3802 18.016 64.6522 16.824 65.1962 15.8C65.7562 14.76 66.5322 13.96 67.5242 13.4C68.5322 12.84 69.6842 12.56 70.9802 12.56C72.2282 12.56 73.3402 12.832 74.3162 13.376C75.2922 13.92 76.0522 14.688 76.5962 15.68C77.1402 16.656 77.4122 17.784 77.4122 19.064ZM74.5562 18.2C74.5402 17.192 74.1802 16.384 73.4762 15.776C72.7722 15.168 71.9002 14.864 70.8602 14.864C69.9162 14.864 69.1082 15.168 68.4362 15.776C67.7642 16.368 67.3642 17.176 67.2362 18.2H74.5562ZM92.2247 19.064C92.2247 19.56 92.1927 20.008 92.1287 20.408H82.0247C82.1047 21.464 82.4967 22.312 83.2007 22.952C83.9047 23.592 84.7687 23.912 85.7927 23.912C87.2647 23.912 88.3047 23.296 88.9127 22.064H91.8647C91.4647 23.28 90.7367 24.28 89.6807 25.064C88.6407 25.832 87.3447 26.216 85.7927 26.216C84.5287 26.216 83.3927 25.936 82.3847 25.376C81.3927 24.8 80.6087 24 80.0327 22.976C79.4727 21.936 79.1927 20.736 79.1927 19.376C79.1927 18.016 79.4647 16.824 80.0087 15.8C80.5687 14.76 81.3447 13.96 82.3367 13.4C83.3447 12.84 84.4967 12.56 85.7927 12.56C87.0407 12.56 88.1527 12.832 89.1287 13.376C90.1047 13.92 90.8647 14.688 91.4087 15.68C91.9527 16.656 92.2247 17.784 92.2247 19.064ZM89.3687 18.2C89.3527 17.192 88.9927 16.384 88.2887 15.776C87.5847 15.168 86.7127 14.864 85.6727 14.864C84.7287 14.864 83.9207 15.168 83.2487 15.776C82.5767 16.368 82.1767 17.176 82.0487 18.2H89.3687ZM100.24 17.624C100.24 15.992 100.616 14.528 101.368 13.232C102.136 11.936 103.168 10.928 104.464 10.208C105.776 9.472 107.208 9.104 108.76 9.104C110.536 9.104 112.112 9.544 113.488 10.424C114.88 11.288 115.888 12.52 116.512 14.12H113.224C112.792 13.24 112.192 12.584 111.424 12.152C110.656 11.72 109.768 11.504 108.76 11.504C107.656 11.504 106.672 11.752 105.808 12.248C104.944 12.744 104.264 13.456 103.768 14.384C103.288 15.312 103.048 16.392 103.048 17.624C103.048 18.856 103.288 19.936 103.768 20.864C104.264 21.792 104.944 22.512 105.808 23.024C106.672 23.52 107.656 23.768 108.76 23.768C109.768 23.768 110.656 23.552 111.424 23.12C112.192 22.688 112.792 22.032 113.224 21.152H116.512C115.888 22.752 114.88 23.984 113.488 24.848C112.112 25.712 110.536 26.144 108.76 26.144C107.192 26.144 105.76 25.784 104.464 25.064C103.168 24.328 102.136 23.312 101.368 22.016C100.616 20.72 100.24 19.256 100.24 17.624ZM131.834 19.064C131.834 19.56 131.802 20.008 131.738 20.408H121.634C121.714 21.464 122.106 22.312 122.81 22.952C123.514 23.592 124.378 23.912 125.402 23.912C126.874 23.912 127.914 23.296 128.522 22.064H131.474C131.074 23.28 130.346 24.28 129.29 25.064C128.25 25.832 126.954 26.216 125.402 26.216C124.138 26.216 123.002 25.936 121.994 25.376C121.002 24.8 120.218 24 119.642 22.976C119.082 21.936 118.802 20.736 118.802 19.376C118.802 18.016 119.074 16.824 119.618 15.8C120.178 14.76 120.954 13.96 121.946 13.4C122.954 12.84 124.106 12.56 125.402 12.56C126.65 12.56 127.762 12.832 128.738 13.376C129.714 13.92 130.474 14.688 131.018 15.68C131.562 16.656 131.834 17.784 131.834 19.064ZM128.978 18.2C128.962 17.192 128.602 16.384 127.898 15.776C127.194 15.168 126.322 14.864 125.282 14.864C124.338 14.864 123.53 15.168 122.858 15.776C122.186 16.368 121.786 17.176 121.658 18.2H128.978ZM141.199 12.56C142.239 12.56 143.167 12.776 143.983 13.208C144.815 13.64 145.463 14.28 145.927 15.128C146.391 15.976 146.623 17 146.623 18.2V26H143.911V18.608C143.911 17.424 143.615 16.52 143.023 15.896C142.431 15.256 141.623 14.936 140.599 14.936C139.575 14.936 138.759 15.256 138.151 15.896C137.559 16.52 137.263 17.424 137.263 18.608V26H134.527V12.776H137.263V14.288C137.711 13.744 138.279 13.32 138.967 13.016C139.671 12.712 140.415 12.56 141.199 12.56ZM153.305 15.008V22.328C153.305 22.824 153.417 23.184 153.641 23.408C153.881 23.616 154.281 23.72 154.841 23.72H156.521V26H154.361C153.129 26 152.185 25.712 151.529 25.136C150.873 24.56 150.545 23.624 150.545 22.328V15.008H148.985V12.776H150.545V9.488H153.305V12.776H156.521V15.008H153.305ZM161.778 14.696C162.178 14.024 162.706 13.504 163.362 13.136C164.034 12.752 164.826 12.56 165.738 12.56V15.392H165.042C163.97 15.392 163.154 15.664 162.594 16.208C162.05 16.752 161.778 17.696 161.778 19.04V26H159.042V12.776H161.778V14.696ZM180.373 19.064C180.373 19.56 180.341 20.008 180.277 20.408H170.173C170.253 21.464 170.645 22.312 171.349 22.952C172.053 23.592 172.917 23.912 173.941 23.912C175.413 23.912 176.453 23.296 177.061 22.064H180.013C179.613 23.28 178.885 24.28 177.829 25.064C176.789 25.832 175.493 26.216 173.941 26.216C172.677 26.216 171.541 25.936 170.533 25.376C169.541 24.8 168.757 24 168.181 22.976C167.621 21.936 167.341 20.736 167.341 19.376C167.341 18.016 167.613 16.824 168.157 15.8C168.717 14.76 169.493 13.96 170.485 13.4C171.493 12.84 172.645 12.56 173.941 12.56C175.189 12.56 176.301 12.832 177.277 13.376C178.253 13.92 179.013 14.688 179.557 15.68C180.101 16.656 180.373 17.784 180.373 19.064ZM177.517 18.2C177.501 17.192 177.141 16.384 176.437 15.776C175.733 15.168 174.861 14.864 173.821 14.864C172.877 14.864 172.069 15.168 171.397 15.776C170.725 16.368 170.325 17.176 170.197 18.2H177.517Z" fill="black"/>
<path d="M2.31179 52L3.15199 49.4893H6.98011L7.82528 52H9.79403L6.20455 41.8182H3.92756L0.34304 52H2.31179ZM3.64915 48.0078L5.02628 43.9062H5.10582L6.48295 48.0078H3.64915ZM16.2654 52C19.3677 52 21.2072 50.081 21.2072 46.8991C21.2072 43.7273 19.3677 41.8182 16.335 41.8182H12.8151V52H16.2654ZM14.6596 50.4041V43.4141H16.2306C18.2988 43.4141 19.3776 44.5675 19.3776 46.8991C19.3776 49.2408 18.2988 50.4041 16.1759 50.4041H14.6596ZM24.6397 41.8182V52H26.4095V44.9901H26.504L29.3179 51.9702H30.6404L33.4543 45.005H33.5487V52H35.3186V41.8182H33.0615L30.0388 49.196H29.9195L26.8968 41.8182H24.6397ZM40.8516 41.8182H39.0072V52H40.8516V41.8182ZM52.8961 41.8182H51.0616V48.7585H50.9721L46.1795 41.8182H44.529V52H46.3734V45.0646H46.4579L51.2555 52H52.8961V41.8182ZM61.7386 52H63.583V48.5597H65.5319C67.8834 48.5597 69.1462 47.1477 69.1462 45.1889C69.1462 43.245 67.8984 41.8182 65.5567 41.8182H61.7386V52ZM63.583 47.0433V43.3594H65.2734C66.6555 43.3594 67.267 44.1051 67.267 45.1889C67.267 46.2727 66.6555 47.0433 65.2833 47.0433H63.583ZM81.5263 46.9091C81.5263 43.6179 79.5178 41.679 76.8481 41.679C74.1734 41.679 72.1698 43.6179 72.1698 46.9091C72.1698 50.1953 74.1734 52.1392 76.8481 52.1392C79.5178 52.1392 81.5263 50.2003 81.5263 46.9091ZM79.6719 46.9091C79.6719 49.2259 78.5086 50.4837 76.8481 50.4837C75.1925 50.4837 74.0242 49.2259 74.0242 46.9091C74.0242 44.5923 75.1925 43.3345 76.8481 43.3345C78.5086 43.3345 79.6719 44.5923 79.6719 46.9091ZM84.9501 52H86.7946V48.2713H88.6738L90.6724 52H92.7307L90.5282 47.9631C91.7264 47.4808 92.3578 46.4567 92.3578 45.0746C92.3578 43.1307 91.105 41.8182 88.7683 41.8182H84.9501V52ZM86.7946 46.7401V43.3594H88.4849C89.8621 43.3594 90.4785 43.9908 90.4785 45.0746C90.4785 46.1584 89.8621 46.7401 88.4949 46.7401H86.7946ZM95.2881 43.3643H98.4352V52H100.265V43.3643H103.412V41.8182H95.2881V43.3643ZM106.735 52L107.575 49.4893H111.403L112.248 52H114.217L110.628 41.8182H108.351L104.766 52H106.735ZM108.072 48.0078L109.449 43.9062H109.529L110.906 48.0078H108.072ZM117.238 52H123.567V50.4538H119.083V41.8182H117.238V52Z" fill="#FF1D89"/>
</svg>
