<svg width="182" height="57" viewBox="0 0 182 57" fill="none" xmlns="http://www.w3.org/2000/svg">
<path d="M10.728 17.432C11.624 17.592 12.384 18.064 13.008 18.848C13.632 19.632 13.944 20.52 13.944 21.512C13.944 22.36 13.72 23.128 13.272 23.816C12.84 24.488 12.208 25.024 11.376 25.424C10.544 25.808 9.576 26 8.472 26H1.8V9.32H8.16C9.296 9.32 10.272 9.512 11.088 9.896C11.904 10.28 12.52 10.8 12.936 11.456C13.352 12.096 13.56 12.816 13.56 13.616C13.56 14.576 13.304 15.376 12.792 16.016C12.28 16.656 11.592 17.128 10.728 17.432ZM4.536 16.328H7.92C8.816 16.328 9.512 16.128 10.008 15.728C10.52 15.312 10.776 14.72 10.776 13.952C10.776 13.2 10.52 12.616 10.008 12.2C9.512 11.768 8.816 11.552 7.92 11.552H4.536V16.328ZM8.232 23.768C9.16 23.768 9.888 23.544 10.416 23.096C10.944 22.648 11.208 22.024 11.208 21.224C11.208 20.408 10.928 19.76 10.368 19.28C9.808 18.8 9.064 18.56 8.136 18.56H4.536V23.768H8.232ZM16.0052 19.328C16.0052 18 16.2772 16.824 16.8212 15.8C17.3812 14.776 18.1332 13.984 19.0772 13.424C20.0372 12.848 21.0932 12.56 22.2452 12.56C23.2852 12.56 24.1892 12.768 24.9572 13.184C25.7412 13.584 26.3652 14.088 26.8292 14.696V12.776H29.5892V26H26.8292V24.032C26.3652 24.656 25.7332 25.176 24.9332 25.592C24.1332 26.008 23.2212 26.216 22.1972 26.216C21.0612 26.216 20.0212 25.928 19.0772 25.352C18.1332 24.76 17.3812 23.944 16.8212 22.904C16.2772 21.848 16.0052 20.656 16.0052 19.328ZM26.8292 19.376C26.8292 18.464 26.6372 17.672 26.2532 17C25.8852 16.328 25.3972 15.816 24.7892 15.464C24.1812 15.112 23.5252 14.936 22.8212 14.936C22.1172 14.936 21.4612 15.112 20.8532 15.464C20.2452 15.8 19.7492 16.304 19.3652 16.976C18.9972 17.632 18.8132 18.416 18.8132 19.328C18.8132 20.24 18.9972 21.04 19.3652 21.728C19.7492 22.416 20.2452 22.944 20.8532 23.312C21.4772 23.664 22.1332 23.84 22.8212 23.84C23.5252 23.84 24.1812 23.664 24.7892 23.312C25.3972 22.96 25.8852 22.448 26.2532 21.776C26.6372 21.088 26.8292 20.288 26.8292 19.376ZM45.0868 12.776L36.9748 32.216H34.1428L36.8308 25.784L31.6228 12.776H34.6708L38.3908 22.856L42.2548 12.776H45.0868ZM50.3436 15.008V22.328C50.3436 22.824 50.4556 23.184 50.6796 23.408C50.9196 23.616 51.3196 23.72 51.8796 23.72H53.5596V26H51.3996C50.1676 26 49.2236 25.712 48.5676 25.136C47.9116 24.56 47.5836 23.624 47.5836 22.328V15.008H46.0236V12.776H47.5836V9.488H50.3436V12.776H53.5596V15.008H50.3436ZM58.8173 14.696C59.2173 14.024 59.7453 13.504 60.4013 13.136C61.0733 12.752 61.8653 12.56 62.7773 12.56V15.392H62.0813C61.0093 15.392 60.1933 15.664 59.6333 16.208C59.0893 16.752 58.8173 17.696 58.8173 19.04V26H56.0813V12.776H58.8173V14.696ZM77.4122 19.064C77.4122 19.56 77.3802 20.008 77.3162 20.408H67.2122C67.2922 21.464 67.6842 22.312 68.3882 22.952C69.0922 23.592 69.9562 23.912 70.9802 23.912C72.4522 23.912 73.4922 23.296 74.1002 22.064H77.0522C76.6522 23.28 75.9242 24.28 74.8682 25.064C73.8282 25.832 72.5322 26.216 70.9802 26.216C69.7162 26.216 68.5802 25.936 67.5722 25.376C66.5802 24.8 65.7962 24 65.2202 22.976C64.6602 21.936 64.3802 20.736 64.3802 19.376C64.3802 18.016 64.6522 16.824 65.1962 15.8C65.7562 14.76 66.5322 13.96 67.5242 13.4C68.5322 12.84 69.6842 12.56 70.9802 12.56C72.2282 12.56 73.3402 12.832 74.3162 13.376C75.2922 13.92 76.0522 14.688 76.5962 15.68C77.1402 16.656 77.4122 17.784 77.4122 19.064ZM74.5562 18.2C74.5402 17.192 74.1802 16.384 73.4762 15.776C72.7722 15.168 71.9002 14.864 70.8602 14.864C69.9162 14.864 69.1082 15.168 68.4362 15.776C67.7642 16.368 67.3642 17.176 67.2362 18.2H74.5562ZM92.2247 19.064C92.2247 19.56 92.1927 20.008 92.1287 20.408H82.0247C82.1047 21.464 82.4967 22.312 83.2007 22.952C83.9047 23.592 84.7687 23.912 85.7927 23.912C87.2647 23.912 88.3047 23.296 88.9127 22.064H91.8647C91.4647 23.28 90.7367 24.28 89.6807 25.064C88.6407 25.832 87.3447 26.216 85.7927 26.216C84.5287 26.216 83.3927 25.936 82.3847 25.376C81.3927 24.8 80.6087 24 80.0327 22.976C79.4727 21.936 79.1927 20.736 79.1927 19.376C79.1927 18.016 79.4647 16.824 80.0087 15.8C80.5687 14.76 81.3447 13.96 82.3367 13.4C83.3447 12.84 84.4967 12.56 85.7927 12.56C87.0407 12.56 88.1527 12.832 89.1287 13.376C90.1047 13.92 90.8647 14.688 91.4087 15.68C91.9527 16.656 92.2247 17.784 92.2247 19.064ZM89.3687 18.2C89.3527 17.192 88.9927 16.384 88.2887 15.776C87.5847 15.168 86.7127 14.864 85.6727 14.864C84.7287 14.864 83.9207 15.168 83.2487 15.776C82.5767 16.368 82.1767 17.176 82.0487 18.2H89.3687ZM100.24 17.624C100.24 15.992 100.616 14.528 101.368 13.232C102.136 11.936 103.168 10.928 104.464 10.208C105.776 9.472 107.208 9.104 108.76 9.104C110.536 9.104 112.112 9.544 113.488 10.424C114.88 11.288 115.888 12.52 116.512 14.12H113.224C112.792 13.24 112.192 12.584 111.424 12.152C110.656 11.72 109.768 11.504 108.76 11.504C107.656 11.504 106.672 11.752 105.808 12.248C104.944 12.744 104.264 13.456 103.768 14.384C103.288 15.312 103.048 16.392 103.048 17.624C103.048 18.856 103.288 19.936 103.768 20.864C104.264 21.792 104.944 22.512 105.808 23.024C106.672 23.52 107.656 23.768 108.76 23.768C109.768 23.768 110.656 23.552 111.424 23.12C112.192 22.688 112.792 22.032 113.224 21.152H116.512C115.888 22.752 114.88 23.984 113.488 24.848C112.112 25.712 110.536 26.144 108.76 26.144C107.192 26.144 105.76 25.784 104.464 25.064C103.168 24.328 102.136 23.312 101.368 22.016C100.616 20.72 100.24 19.256 100.24 17.624ZM131.834 19.064C131.834 19.56 131.802 20.008 131.738 20.408H121.634C121.714 21.464 122.106 22.312 122.81 22.952C123.514 23.592 124.378 23.912 125.402 23.912C126.874 23.912 127.914 23.296 128.522 22.064H131.474C131.074 23.28 130.346 24.28 129.29 25.064C128.25 25.832 126.954 26.216 125.402 26.216C124.138 26.216 123.002 25.936 121.994 25.376C121.002 24.8 120.218 24 119.642 22.976C119.082 21.936 118.802 20.736 118.802 19.376C118.802 18.016 119.074 16.824 119.618 15.8C120.178 14.76 120.954 13.96 121.946 13.4C122.954 12.84 124.106 12.56 125.402 12.56C126.65 12.56 127.762 12.832 128.738 13.376C129.714 13.92 130.474 14.688 131.018 15.68C131.562 16.656 131.834 17.784 131.834 19.064ZM128.978 18.2C128.962 17.192 128.602 16.384 127.898 15.776C127.194 15.168 126.322 14.864 125.282 14.864C124.338 14.864 123.53 15.168 122.858 15.776C122.186 16.368 121.786 17.176 121.658 18.2H128.978ZM141.199 12.56C142.239 12.56 143.167 12.776 143.983 13.208C144.815 13.64 145.463 14.28 145.927 15.128C146.391 15.976 146.623 17 146.623 18.2V26H143.911V18.608C143.911 17.424 143.615 16.52 143.023 15.896C142.431 15.256 141.623 14.936 140.599 14.936C139.575 14.936 138.759 15.256 138.151 15.896C137.559 16.52 137.263 17.424 137.263 18.608V26H134.527V12.776H137.263V14.288C137.711 13.744 138.279 13.32 138.967 13.016C139.671 12.712 140.415 12.56 141.199 12.56ZM153.305 15.008V22.328C153.305 22.824 153.417 23.184 153.641 23.408C153.881 23.616 154.281 23.72 154.841 23.72H156.521V26H154.361C153.129 26 152.185 25.712 151.529 25.136C150.873 24.56 150.545 23.624 150.545 22.328V15.008H148.985V12.776H150.545V9.488H153.305V12.776H156.521V15.008H153.305ZM161.778 14.696C162.178 14.024 162.706 13.504 163.362 13.136C164.034 12.752 164.826 12.56 165.738 12.56V15.392H165.042C163.97 15.392 163.154 15.664 162.594 16.208C162.05 16.752 161.778 17.696 161.778 19.04V26H159.042V12.776H161.778V14.696ZM180.373 19.064C180.373 19.56 180.341 20.008 180.277 20.408H170.173C170.253 21.464 170.645 22.312 171.349 22.952C172.053 23.592 172.917 23.912 173.941 23.912C175.413 23.912 176.453 23.296 177.061 22.064H180.013C179.613 23.28 178.885 24.28 177.829 25.064C176.789 25.832 175.493 26.216 173.941 26.216C172.677 26.216 171.541 25.936 170.533 25.376C169.541 24.8 168.757 24 168.181 22.976C167.621 21.936 167.341 20.736 167.341 19.376C167.341 18.016 167.613 16.824 168.157 15.8C168.717 14.76 169.493 13.96 170.485 13.4C171.493 12.84 172.645 12.56 173.941 12.56C175.189 12.56 176.301 12.832 177.277 13.376C178.253 13.92 179.013 14.688 179.557 15.68C180.101 16.656 180.373 17.784 180.373 19.064ZM177.517 18.2C177.501 17.192 177.141 16.384 176.437 15.776C175.733 15.168 174.861 14.864 173.821 14.864C172.877 14.864 172.069 15.168 171.397 15.776C170.725 16.368 170.325 17.176 170.197 18.2H177.517Z" fill="black"/>
<path d="M2.758 52H0.98V41.92H2.688L6.02 48.612L9.352 41.92H11.06V52H9.282V45.98L6.356 52H5.684L2.758 45.98V52ZM21.2849 52H14.7049V41.92H21.2849V43.698H16.6089V45.854H20.4449V47.632H16.6089V50.222H21.2849V52ZM26.5747 52H24.6427V41.92H26.5747L30.9567 48.64V41.92H32.8887V52H30.9567L26.5747 45.28V52ZM40.764 52H38.86V43.698H35.682V41.92H43.942V43.698H40.764V52ZM51.0729 52.21C50.0789 52.21 49.2132 51.993 48.4759 51.559C47.7385 51.1203 47.1715 50.5043 46.7749 49.711C46.3829 48.9177 46.1869 48.0007 46.1869 46.96C46.1869 45.9193 46.3829 45.0023 46.7749 44.209C47.1715 43.4157 47.7385 42.802 48.4759 42.368C49.2132 41.9293 50.0789 41.71 51.0729 41.71C52.0669 41.71 52.9325 41.9293 53.6699 42.368C54.4072 42.802 54.9719 43.4157 55.3639 44.209C55.7605 45.0023 55.9589 45.9193 55.9589 46.96C55.9589 48.0007 55.7605 48.9177 55.3639 49.711C54.9719 50.5043 54.4072 51.1203 53.6699 51.559C52.9325 51.993 52.0669 52.21 51.0729 52.21ZM51.1289 50.418C51.7449 50.418 52.2629 50.2757 52.6829 49.991C53.1029 49.7063 53.4179 49.305 53.6279 48.787C53.8379 48.269 53.9429 47.66 53.9429 46.96C53.9429 45.8773 53.6955 45.0303 53.2009 44.419C52.7062 43.8077 51.9782 43.502 51.0169 43.502C50.4009 43.502 49.8829 43.6443 49.4629 43.929C49.0429 44.2137 48.7279 44.615 48.5179 45.133C48.3079 45.651 48.2029 46.26 48.2029 46.96C48.2029 48.0427 48.4502 48.8897 48.9449 49.501C49.4395 50.1123 50.1675 50.418 51.1289 50.418ZM66.8763 52H64.7203L63.0613 48.584H60.9403V52H59.0363V41.92H63.2923C63.6143 41.92 63.8943 41.9387 64.1323 41.976C65.0049 42.1113 65.6559 42.4707 66.0853 43.054C66.5193 43.6327 66.7363 44.3653 66.7363 45.252C66.7363 45.9567 66.5963 46.5703 66.3163 47.093C66.0363 47.6157 65.6163 48.0053 65.0563 48.262L66.8763 52ZM60.9403 43.698V46.806H63.2083C63.4743 46.806 63.6889 46.7827 63.8523 46.736C64.2023 46.6427 64.4496 46.456 64.5943 46.176C64.7436 45.8913 64.8183 45.5833 64.8183 45.252C64.8183 44.9207 64.7436 44.615 64.5943 44.335C64.4496 44.0503 64.2023 43.8613 63.8523 43.768C63.6889 43.7213 63.4743 43.698 63.2083 43.698H60.9403ZM74.5779 52V41.92H78.8339C79.1559 41.92 79.4359 41.9387 79.6739 41.976C80.5466 42.1113 81.1976 42.4707 81.6269 43.054C82.0609 43.6327 82.2779 44.3653 82.2779 45.252C82.2779 46.134 82.0609 46.8667 81.6269 47.45C81.1929 48.0333 80.5419 48.3927 79.6739 48.528C79.4359 48.5653 79.1559 48.584 78.8339 48.584H76.4819V52H74.5779ZM78.7499 46.806C79.0159 46.806 79.2306 46.7827 79.3939 46.736C79.7439 46.6427 79.9912 46.456 80.1359 46.176C80.2852 45.8913 80.3599 45.5833 80.3599 45.252C80.3599 44.9207 80.2852 44.615 80.1359 44.335C79.9912 44.0503 79.7439 43.8613 79.3939 43.768C79.2306 43.7213 79.0159 43.698 78.7499 43.698H76.4819V46.806H78.7499ZM89.6894 52.21C88.6954 52.21 87.8297 51.993 87.0924 51.559C86.355 51.1203 85.788 50.5043 85.3914 49.711C84.9994 48.9177 84.8034 48.0007 84.8034 46.96C84.8034 45.9193 84.9994 45.0023 85.3914 44.209C85.788 43.4157 86.355 42.802 87.0924 42.368C87.8297 41.9293 88.6954 41.71 89.6894 41.71C90.6834 41.71 91.549 41.9293 92.2864 42.368C93.0237 42.802 93.5884 43.4157 93.9804 44.209C94.377 45.0023 94.5754 45.9193 94.5754 46.96C94.5754 48.0007 94.377 48.9177 93.9804 49.711C93.5884 50.5043 93.0237 51.1203 92.2864 51.559C91.549 51.993 90.6834 52.21 89.6894 52.21ZM89.7454 50.418C90.3614 50.418 90.8794 50.2757 91.2994 49.991C91.7194 49.7063 92.0344 49.305 92.2444 48.787C92.4544 48.269 92.5594 47.66 92.5594 46.96C92.5594 45.8773 92.312 45.0303 91.8174 44.419C91.3227 43.8077 90.5947 43.502 89.6334 43.502C89.0174 43.502 88.4994 43.6443 88.0794 43.929C87.6594 44.2137 87.3444 44.615 87.1344 45.133C86.9244 45.651 86.8194 46.26 86.8194 46.96C86.8194 48.0427 87.0667 48.8897 87.5614 49.501C88.056 50.1123 88.784 50.418 89.7454 50.418ZM105.493 52H103.337L101.678 48.584H99.5567V52H97.6527V41.92H101.909C102.231 41.92 102.511 41.9387 102.749 41.976C103.621 42.1113 104.272 42.4707 104.702 43.054C105.136 43.6327 105.353 44.3653 105.353 45.252C105.353 45.9567 105.213 46.5703 104.933 47.093C104.653 47.6157 104.233 48.0053 103.673 48.262L105.493 52ZM99.5567 43.698V46.806H101.825C102.091 46.806 102.305 46.7827 102.469 46.736C102.819 46.6427 103.066 46.456 103.211 46.176C103.36 45.8913 103.435 45.5833 103.435 45.252C103.435 44.9207 103.36 44.615 103.211 44.335C103.066 44.0503 102.819 43.8613 102.469 43.768C102.305 43.7213 102.091 43.698 101.825 43.698H99.5567ZM112.954 52H111.05V43.698H107.872V41.92H116.132V43.698H112.954V52ZM126.965 52H125.005L124.354 49.9H120.56L119.923 52H117.963L121.043 41.92H123.885L126.965 52ZM122.443 43.705L121.099 48.122H123.808L122.443 43.705ZM136.284 52H130.04V41.92H131.944V50.222H136.284V52Z" fill="#FF1D89"/>
</svg>
