<svg width="316" height="434" viewBox="0 0 316 434" fill="none" xmlns="http://www.w3.org/2000/svg">
<path d="M29.0899 340.17L27.0899 342.7C24.1799 340.43 21.7799 339.41 18.2299 339.41C10.7099 339.41 4.43994 344.73 4.43994 358.52C4.43994 371.68 10.4399 377.52 18.0399 377.52C22.5399 377.52 25.0399 375.88 27.5999 373.85L29.5999 376.38C28.046 377.868 26.2109 379.032 24.202 379.803C22.1931 380.574 20.0507 380.937 17.8999 380.87C7.89994 380.87 0.439941 373.09 0.439941 358.48C0.439941 343.67 8.34994 336.15 17.9599 336.15C22.0518 335.99 26.0446 337.432 29.0899 340.17V340.17Z" fill="#282828"/>
<path d="M81.85 340H64.08V356.14H79.45V359.3H64.08V377.01H82.74V380.18H60.28V336.88H82.28L81.85 340Z" fill="#282828"/>
<path d="M143.41 380.22H138.41L118 341.06C118.19 344.06 118.51 348.21 118.51 355.99V380.22H114.9V336.88H119.77L140.31 376C140.19 374.17 139.81 368.79 139.81 363.16V336.88H143.41V380.22Z" fill="#282828"/>
<path d="M202.88 340.23H190.17V380.23H186.44V340.23H173.59V336.88H203.33L202.88 340.23Z" fill="#282828"/>
<path d="M245.66 360.79H237V380.22H233.2V336.88H243.7C254.13 336.88 259.13 340.99 259.13 348.65C259.13 355.1 255.59 358.52 249.45 360.1L261.35 380.22H256.79L245.66 360.79ZM244.2 357.7C251.1 357.7 255.08 354.97 255.08 348.65C255.08 342.89 251.86 339.98 243.57 339.98H237V357.7H244.2Z" fill="#282828"/>
<path d="M314.3 340H296.53V356.14H311.9V359.3H296.53V377.01H315.19V380.18H292.73V336.88H314.73L314.3 340Z" fill="#282828"/>
<path d="M43 298.63C43 312.07 32.59 316.68 17.85 316.68H0.380005V253.22H15.38C31.03 253.22 40.24 258.22 40.24 269.22C40.24 277.05 34.53 281.84 28.36 283.12C35.75 284.45 43 287.85 43 298.63ZM9.10001 260.13V280.13H18.68C25.77 280.13 31.3 276.63 31.3 269.9C31.3 262.07 25.68 260.14 16.3 260.14L9.10001 260.13ZM33.79 298.63C33.79 289.69 27.15 286.84 19.51 286.84H9.13V309.68H17.88C27.09 309.68 33.82 307.84 33.82 298.63H33.79Z" fill="#282828"/>
<path d="M92.6601 311.89L90.7301 317.79C85.8501 317.23 82.7301 315.3 81.2401 310.51C77.8401 315.57 72.6801 317.79 66.7801 317.79C57.1101 317.79 51.3101 311.79 51.3101 303.14C51.3101 292.73 59.1401 287.14 72.6801 287.14H80.1401V283.54C80.1401 276.54 76.7301 273.97 70.0101 273.97C65.5442 274.152 61.1328 275.019 56.9301 276.54L54.8101 270.37C60.1471 268.243 65.8256 267.101 71.5701 267C83.2701 267 88.5701 273 88.5701 283.11V305.31C88.6101 309.59 90.1801 311 92.6601 311.89ZM80.1401 303.89V292.73H73.7801C64.8501 292.73 60.3401 296.05 60.3401 302.68C60.3401 308.39 63.1901 311.43 68.7201 311.43C73.6901 311.43 77.3801 308.94 80.1401 303.88V303.89Z" fill="#282828"/>
<path d="M184.63 314.47C181.444 316.687 177.642 317.849 173.76 317.79C165.56 317.79 160.68 313 160.68 303.97V274.68H152.21V268.14H160.68V257.14L169.15 256.14V268.14H180.66L179.74 274.68H169.15V303.6C169.15 308.48 170.72 310.79 174.95 310.79C177.26 310.725 179.502 309.989 181.4 308.67L184.63 314.47Z" fill="#282828"/>
<path d="M219.25 267.59L217.69 275.88C216.31 275.498 214.882 275.313 213.45 275.33C207.37 275.33 203.87 279.65 201.84 288.96V316.68H193.37V268.14H200.65L201.48 278C204.06 270.72 208.57 267 214.48 267C216.088 267.009 217.689 267.207 219.25 267.59Z" fill="#282828"/>
<path d="M264.47 295.31H233.53C234.35 306.55 239.6 310.88 246.6 310.88C251.39 310.88 254.99 309.59 259.22 306.64L262.91 311.71C258.129 315.663 252.113 317.815 245.91 317.79C232.37 317.79 224.45 308.3 224.45 292.92C224.45 277.81 232.09 267.04 244.62 267.04C257.7 267.04 264.62 276.16 264.62 290.98C264.66 292.64 264.56 294.21 264.47 295.31ZM256.28 288.5C256.28 279.01 252.5 273.76 244.85 273.76C238.41 273.76 234.17 278.27 233.53 289.05H256.28V288.5Z" fill="#282828"/>
<path d="M315.12 295.31H284.18C285.01 306.55 290.26 310.88 297.26 310.88C302.04 310.88 305.64 309.59 309.87 306.64L313.56 311.71C308.793 315.652 302.796 317.803 296.61 317.79C283.07 317.79 275.15 308.3 275.15 292.92C275.15 277.81 282.8 267.04 295.32 267.04C308.4 267.04 315.32 276.16 315.32 290.98C315.31 292.64 315.22 294.21 315.12 295.31ZM306.93 288.5C306.93 279.01 303.15 273.76 295.51 273.76C289.06 273.76 284.82 278.27 284.18 289.05H306.93V288.5Z" fill="#282828"/>
<path d="M151.34 323.35C143.93 323.8 132.68 322.97 80.72 324.44C44.89 325.46 0 328.19 0 328.19C0 328.19 53.12 328.24 153.17 328.19C232.66 328.19 323.57 328.19 314.7 328.19C314.7 328.19 309.43 327.41 232.57 324.8C176.32 322.89 156 323.35 156 323.35H151.34Z" fill="#282828"/>
<path d="M91.26 238.2L95.26 235.77C95.26 235.77 106.41 246.46 112.16 256.48C117.91 266.5 121.59 281.55 121.59 281.55C121.59 281.55 134.59 263.86 140.99 258.06C142.67 258.94 144.8 259.88 145.28 260.06C145.28 260.06 129.59 279.25 126.61 292.12C123.63 304.99 120.43 324 120.43 324H110.13C110.13 324 115.73 288.91 110.72 270.92C105.71 252.93 91.26 238.2 91.26 238.2Z" fill="#282828"/>
<path d="M177.51 235.48C177.51 235.48 174.32 244.58 161.35 249.36C152.92 252.36 141.09 249.36 141.09 249.36C141.09 249.36 139.95 240.49 152.47 235.48C165.22 230.47 177.51 235.48 177.51 235.48Z" fill="#A4CB76"/>
<path d="M204.83 210.78C204.83 210.78 204.83 219.03 187.1 228.47C169.99 237.91 160.85 228.47 160.85 228.47C160.85 228.47 156.72 217.26 179.13 210.78C200.37 207.24 204.83 210.78 204.83 210.78Z" fill="#A4CB76"/>
<path d="M243.71 178.34C243.71 178.34 238.71 189.55 220.39 202.23C203.61 209.23 194.15 202.23 194.15 202.23C194.15 202.23 197.15 188.96 215.41 181.88C243.71 176.28 243.71 178.34 243.71 178.34Z" fill="#D5DF7C"/>
<path d="M250.79 147C250.79 147 253.26 150.86 243.71 166.82C224.25 183.04 217.47 173.75 217.47 173.75C217.47 173.75 215.1 160.04 229.56 152.08C235.858 148.033 243.342 146.242 250.79 147Z" fill="#5AB031"/>
<path d="M220.12 141.7C220.12 141.7 220 147 213.34 166C207.18 184.54 195.74 184.59 195.74 184.59C195.74 184.59 187.1 176.47 197.17 159.18C212.46 141.7 220.12 141.7 220.12 141.7Z" fill="#5AB031"/>
<path d="M234.2 97.55C234.2 97.55 232.2 114.35 221.13 128.79C209.51 144.89 198.89 143.84 198.89 143.84C198.89 143.84 194.71 130.27 206.21 114.06C210.39 106.39 234.2 97.55 234.2 97.55Z" fill="#5AB031"/>
<path d="M184.15 106.67C184.15 106.67 194.21 121.91 192.29 140C190.77 159.81 176.81 164.58 176.81 164.58C176.81 164.58 166.06 157.77 167.42 137.94C167.3 124.08 184.15 106.67 184.15 106.67Z" fill="#5AB031"/>
<path d="M181.49 171.26C181.49 171.26 191 175.39 190.77 188.91C189.25 208.72 175.3 213.49 175.3 213.49C175.3 213.49 168.7 221.43 170.06 201.59C169.87 196.33 173.24 193.16 175.89 188.37C179.42 182 181.49 171.26 181.49 171.26Z" fill="#A4CB76"/>
<path d="M161.69 154.36C161.69 154.36 172.69 163.12 169.87 183.36C163.42 207.86 153.66 204.08 153.66 204.08C148.771 195.142 147.442 184.687 149.94 174.81C152.95 167.511 156.9 160.636 161.69 154.36V154.36Z" fill="#5AB031"/>
<path d="M132.93 181.72C132.93 181.72 151.53 200.07 151.7 208.82C153.57 232.82 141.83 236.04 141.83 236.04C141.83 236.04 128.72 224.18 127.11 206.91C127.75 194.33 132.93 181.72 132.93 181.72Z" fill="#5AB031"/>
<path d="M111.76 200.25C113.575 203.309 115.664 206.198 118 208.88C122.77 214.64 124.66 218.78 124.58 229.06C124.73 238.86 118 247.44 118 247.44C118 247.44 103.94 237.61 102.67 223.85C103.31 211.26 111.76 200.25 111.76 200.25Z" fill="#5AB031"/>
<path d="M3.13 195.15C3.13 195.15 21.13 187.78 35.82 193.15C50.27 200.24 53.22 215.05 53.22 215.05C53.22 215.05 34.05 226.4 21.08 217.84C4.86001 205.33 3.13 195.15 3.13 195.15Z" fill="#5AB031"/>
<path d="M33.46 99.3101C33.46 99.3101 48.69 116.17 55.58 130.31C58.8922 139.665 59.9208 149.677 58.58 159.51C58.58 159.51 36.05 152.51 32.63 137.39C30.8427 124.736 31.123 111.875 33.46 99.3101V99.3101Z" fill="#5AB031"/>
<path d="M221.6 66.4C221.6 66.4 221.85 88.4 213.05 99.31C201.42 115.41 194.15 114.01 194.15 114.01C194.15 114.01 187.98 101.67 199.48 85.45C203.67 77.78 221.6 66.4 221.6 66.4Z" fill="#5AB031"/>
<path d="M193.61 39.3701C193.61 39.3701 196.53 77.7801 185.61 90.2201C175.29 99.3101 172.19 97.3101 172.19 97.3101C172.19 97.3101 160.55 82.6201 172.05 66.4001C176.24 58.7401 193.61 39.3701 193.61 39.3701Z" fill="#A4CB76"/>
<path d="M164.67 34.4401C164.67 34.4401 173.83 68.4401 164.67 79.2601L154.35 88.3501C154.35 88.3501 136.67 77.1901 148.74 56.8501C155.37 46.7401 164.67 34.4401 164.67 34.4401Z" fill="#5AB031"/>
<path d="M142.46 13.3401C141.06 24.1201 155.25 32.6701 144.73 52.1301C135.2 66.4001 134.41 64.2201 134.41 64.2201C134.41 64.2201 119.5 48.9201 131.57 28.5701C138.2 18.4701 142.66 11.8101 142.46 13.3401Z" fill="#B5CD32"/>
<path d="M87.72 236.14C88.9 221.04 96.27 228.76 102.72 208.88C104.58 201.93 99.32 188.36 99.32 188.36C99.32 188.36 73.87 196.36 79.22 223.85C80.64 231.42 87.59 237.87 87.72 236.14Z" fill="#5AB031"/>
<path d="M59.38 256.52C69.95 252.45 73.8 261.46 89.29 259.36C94.58 258.36 99.65 248.46 99.65 248.46C99.65 248.46 83.88 234.22 69.43 244.21C64.69 247.49 58.17 257 59.38 256.52Z" fill="#686868"/>
<path d="M112.2 0.150059C113.62 11.7301 97.59 15.6101 94.1 36.2101C92.73 47.7101 98 55.0701 98 55.0701C98 55.0701 127.11 46.5301 121 20.0001C119.32 12.4701 112 -1.57994 112.2 0.150059Z" fill="#686868"/>
<path d="M158.94 131.83C160.33 123.879 162.521 116.09 165.48 108.58C169.25 98.4201 173.24 99.3101 173.24 99.3101C173.24 99.3101 175.78 103.87 172.06 114.04C169.75 121.1 158.94 131.83 158.94 131.83Z" fill="#5AB031"/>
<path d="M1.25002 131.83C1.25002 131.83 13.41 133.52 27 152.1C40 168.9 35.67 184.54 35.67 184.54C35.67 184.54 11.84 185.3 5.17002 171.26C-1.32998 148.26 1.25002 131.83 1.25002 131.83Z" fill="#5AB031"/>
<path d="M39.05 157.58C48.94 169 40.49 179.43 50.12 198C53.75 204.22 69.12 206.16 69.12 206.16C69.12 206.16 80.22 180 61.12 166.33C54.87 161.8 37.92 156.26 39.05 157.58Z" fill="#D5DF7C"/>
<path d="M109.84 143.85C105.27 129.42 120.91 132.52 119.38 111.7C118.68 97.55 111.61 84.27 111.61 84.27C111.61 84.27 88.26 108 98 129.39C102.67 139.71 110.36 145.51 109.84 143.85Z" fill="#B5CD32"/>
<path d="M155.25 92.2301C155.25 92.2301 156.45 115.02 147.25 125.85C136.93 134.94 129.85 131.85 129.85 131.85C129.85 131.85 127.07 119.38 135.16 108.47C141.82 98.3401 155.25 92.2301 155.25 92.2301Z" fill="#D5DF7C"/>
<path d="M119.49 57.7301C119.49 57.7301 138.15 68.4301 141.06 90.2201C141.06 103.97 135.2 108.45 135.2 108.45C135.2 108.45 124.58 106.09 119.49 88.3501C116.29 76.6901 119.49 57.7301 119.49 57.7301Z" fill="#D5DF7C"/>
<path d="M121.88 131.19C121.88 131.19 137.25 152.54 130.09 173.33C123.92 185.62 121.88 186.6 121.88 186.6C121.88 186.6 109.25 177.97 111.02 161.6C111.937 150.692 115.68 140.211 121.88 131.19V131.19Z" fill="#686868"/>
<path d="M90.7501 135.63C85.3601 154.36 75.9301 150.03 75.9301 171.26C75.9301 177.46 91.2601 189.84 91.2601 189.84C94.7065 180.65 97.4674 171.218 99.5201 161.62C102.67 146.2 91.2301 134 90.7501 135.63Z" fill="#A4CB76"/>
<path d="M72.3501 30.3101C72.3501 30.3101 86.2501 36.2101 89.4901 57.7301C91.2601 71.3001 83.8901 83.0901 80.9401 93.9101C80.9401 93.9101 70.0301 88.3501 67.6001 73.0701C65.1559 58.6529 66.8015 43.8393 72.3501 30.3101V30.3101Z" fill="#686868"/>
<path d="M50.0001 62.1101C50.0001 62.1101 65.09 75.3001 70 90.2201C73.35 105.96 64.46 109.93 64.46 109.93C64.46 109.93 46.83 109.4 45.53 93.9301C45.33 73.4201 50.0001 62.1101 50.0001 62.1101Z" fill="#A4CB76"/>
<path d="M105.71 56.5501C105.71 56.5501 112.77 65.7301 109.25 81.0301C104 96.2401 93.88 99.3101 93.88 99.3101C93.88 99.3101 82.88 85.8201 89.76 71.8901C99.52 55.3701 105.71 56.5501 105.71 56.5501Z" fill="#686868"/>
<path d="M66.53 109.3C70.3843 111.966 73.6692 115.373 76.1931 119.322C78.7169 123.271 80.4292 127.682 81.23 132.3C83 154.3 70.72 156.18 70.72 156.18C70.72 156.18 60.05 144.85 61.18 129.35C63.25 114 66.53 109.3 66.53 109.3Z" fill="#A4CB76"/>
<path d="M39.71 242.48C52.33 240.82 53.2 246.65 69.17 244.48C74.63 243.48 76.17 234.63 76.17 234.63C76.17 234.63 68.34 224.63 53.59 231.45C46.85 234.59 38.38 242.65 39.71 242.48Z" fill="#686868"/>
<path d="M151.9 129.39C151.9 129.39 160.55 134.7 155.3 157.39C153.77 162.67 141.06 171.27 141.06 171.27C141.06 171.27 129.5 155.07 137 140.41C138.283 137.417 140.339 134.819 142.958 132.882C145.576 130.946 148.662 129.74 151.9 129.39V129.39Z" fill="#5AB031"/>
<path d="M83 91.7001C83.0101 91.6559 83.0349 91.6165 83.0703 91.5882C83.1057 91.5599 83.1497 91.5446 83.195 91.5446C83.2404 91.5446 83.2843 91.5599 83.3198 91.5882C83.3552 91.6165 83.38 91.6559 83.39 91.7001C83.71 94.9401 86.45 101.7 87.39 105.59C88.55 110.24 90.69 128.96 90.69 128.96C90.19 130.29 80.31 119.37 79.99 106.66C79.83 100.31 82.46 95.0001 83 91.7001Z" fill="#686868"/>
<path d="M125.62 266.58C125.62 266.58 122.14 254.75 124.62 243.34C126.83 232.22 132.03 231.42 132.03 231.42C132.03 231.42 137.54 243.42 132.03 255.83L125.62 266.58Z" fill="#5AB031"/>
<path d="M123.71 206.12C123.71 206.12 119.29 204.4 116.6 197.63C116.403 197.163 116.269 196.672 116.2 196.17C115.31 189.47 121.42 184.63 121.42 184.63C121.42 184.63 122.81 191.63 123.7 194.73C123.74 195.005 123.74 195.285 123.7 195.56L123.71 206.12Z" fill="#686868"/>
<path d="M72.0601 223.8C72.0601 223.8 67.5001 225.12 61.2601 221.37C60.8194 221.116 60.4128 220.807 60.0501 220.45C55.2901 215.67 57.2101 208.11 57.2101 208.11C57.2101 208.11 62.5701 212.85 65.1501 214.76C65.3701 214.92 65.4601 215.22 65.6201 215.44L72.0601 223.8Z" fill="#5AB031"/>
<path d="M154.62 226.07C154.606 226.091 154.588 226.109 154.568 226.123C154.547 226.137 154.524 226.147 154.499 226.152C154.474 226.158 154.449 226.158 154.424 226.153C154.4 226.148 154.376 226.139 154.355 226.125C154.334 226.111 154.316 226.093 154.302 226.073C154.288 226.052 154.278 226.029 154.273 226.004C154.268 225.979 154.267 225.954 154.272 225.929C154.277 225.905 154.286 225.881 154.3 225.86C155.71 222.92 156.87 215.74 158.07 211.86C159.5 207.29 164.67 193.13 164.67 193.13C165.78 192.25 166.51 204.85 163.21 212.36C160.1 217.94 156.83 223.54 154.62 226.07Z" fill="#5AB031"/>
<path d="M36.6781 421.844H32.519L31.1376 417.388H23.0869L21.7352 421.844H17.5762L24.1118 400.455H30.1424L36.6781 421.844ZM27.0826 404.242L24.2306 413.615H29.979L27.0826 404.242ZM44.9848 421.844V400.455H51.9066C52.9563 400.455 53.8079 400.494 54.4615 400.573C56.135 400.772 57.5758 401.361 58.7839 402.341C60.0019 403.321 60.9278 404.579 61.5615 406.114C62.1953 407.639 62.5122 409.317 62.5122 411.149C62.5122 412.981 62.1953 414.665 61.5615 416.2C60.9278 417.725 60.0019 418.977 58.7839 419.958C57.5758 420.938 56.135 421.527 54.4615 421.725C53.8079 421.804 52.9563 421.844 51.9066 421.844H44.9848ZM51.9066 418.041C52.9563 418.041 53.7287 417.992 54.2238 417.893C55.115 417.715 55.8577 417.294 56.4519 416.63C57.0559 415.957 57.5015 415.145 57.7887 414.194C58.0858 413.234 58.2343 412.219 58.2343 411.149C58.2343 410.05 58.0808 409.02 57.7738 408.06C57.4768 407.099 57.0262 406.292 56.4221 405.639C55.828 404.985 55.0952 404.574 54.2238 404.406C53.7287 404.307 52.9563 404.257 51.9066 404.257H49.0844V418.041H51.9066ZM75.4932 421.844H71.7203V400.455H75.3446L82.415 414.655L89.4854 400.455H93.1097V421.844H89.3368V409.07L83.128 421.844H81.702L75.4932 409.07V421.844ZM107.261 421.844H103.221V400.455H107.261V421.844ZM121.458 421.844H117.358V400.455H121.458L130.756 414.714V400.455H134.856V421.844H130.756L121.458 407.584V421.844ZM156.237 421.844V400.455H165.268C165.951 400.455 166.545 400.494 167.05 400.573C168.902 400.861 170.284 401.623 171.195 402.861C172.115 404.089 172.576 405.644 172.576 407.525C172.576 409.397 172.115 410.951 171.195 412.189C170.274 413.427 168.892 414.189 167.05 414.477C166.545 414.556 165.951 414.595 165.268 414.595H160.277V421.844H156.237ZM165.09 410.823C165.654 410.823 166.11 410.773 166.456 410.674C167.199 410.476 167.724 410.08 168.031 409.486C168.348 408.882 168.506 408.228 168.506 407.525C168.506 406.822 168.348 406.173 168.031 405.579C167.724 404.975 167.199 404.574 166.456 404.376C166.11 404.277 165.654 404.227 165.09 404.227H160.277V410.823H165.09ZM190.382 422.29C188.273 422.29 186.436 421.829 184.872 420.908C183.307 419.977 182.104 418.67 181.262 416.987C180.43 415.303 180.014 413.358 180.014 411.149C180.014 408.941 180.43 406.995 181.262 405.312C182.104 403.628 183.307 402.326 184.872 401.405C186.436 400.474 188.273 400.009 190.382 400.009C192.492 400.009 194.328 400.474 195.893 401.405C197.458 402.326 198.656 403.628 199.488 405.312C200.329 406.995 200.75 408.941 200.75 411.149C200.75 413.358 200.329 415.303 199.488 416.987C198.656 418.67 197.458 419.977 195.893 420.908C194.328 421.829 192.492 422.29 190.382 422.29ZM190.501 418.487C191.808 418.487 192.907 418.185 193.799 417.581C194.69 416.977 195.358 416.125 195.804 415.026C196.25 413.927 196.472 412.635 196.472 411.149C196.472 408.852 195.948 407.055 194.898 405.757C193.848 404.46 192.303 403.812 190.263 403.812C188.956 403.812 187.857 404.114 186.966 404.718C186.075 405.322 185.406 406.173 184.961 407.272C184.515 408.372 184.292 409.664 184.292 411.149C184.292 413.447 184.817 415.244 185.867 416.541C186.916 417.838 188.461 418.487 190.501 418.487ZM225.996 421.844H221.421L217.901 414.595H213.4V421.844H209.36V400.455H218.391C219.074 400.455 219.668 400.494 220.173 400.573C222.025 400.861 223.406 401.623 224.318 402.861C225.238 404.089 225.699 405.644 225.699 407.525C225.699 409.02 225.402 410.322 224.808 411.432C224.214 412.541 223.322 413.367 222.134 413.912L225.996 421.844ZM213.4 404.227V410.823H218.213C218.777 410.823 219.233 410.773 219.579 410.674C220.322 410.476 220.847 410.08 221.154 409.486C221.471 408.882 221.629 408.228 221.629 407.525C221.629 406.822 221.471 406.173 221.154 405.579C220.847 404.975 220.322 404.574 219.579 404.376C219.233 404.277 218.777 404.227 218.213 404.227H213.4ZM243.907 421.844H239.867V404.227H233.123V400.455H250.651V404.227H243.907V421.844ZM275.719 421.844H271.56L270.178 417.388H262.127L260.776 421.844H256.617L263.152 400.455H269.183L275.719 421.844ZM266.123 404.242L263.271 413.615H269.02L266.123 404.242ZM297.572 421.844H284.322V400.455H288.363V418.071H297.572V421.844Z" fill="#FF1D89"/>
</svg>
