<svg width="137" height="178" viewBox="0 0 137 178" fill="none" xmlns="http://www.w3.org/2000/svg">
<path d="M49.5134 130.298L51.7015 128.968C51.7015 128.968 57.8007 134.816 60.9461 140.297C64.0914 145.778 66.1045 154.011 66.1045 154.011C66.1045 154.011 73.2157 144.334 76.7166 141.161C77.6356 141.643 78.8007 142.157 79.0633 142.255C79.0633 142.255 70.4806 152.753 68.8505 159.793C67.2204 166.833 65.4699 177.232 65.4699 177.232H59.8356C59.8356 177.232 62.8989 158.037 60.1584 148.196C57.4178 138.355 49.5134 130.298 49.5134 130.298Z" fill="#2C3E50"/>
<path d="M96.6936 128.81C96.6936 128.81 94.9487 133.787 87.8538 136.402C83.2425 138.043 76.7713 136.402 76.7713 136.402C76.7713 136.402 76.1477 131.55 82.9963 128.81C89.9708 126.069 96.6936 128.81 96.6936 128.81Z" fill="#C0C5CB"/>
<path d="M111.638 115.298C111.638 115.298 111.638 119.811 101.94 124.975C92.5801 130.139 87.5804 124.975 87.5804 124.975C87.5804 124.975 85.3212 118.843 97.5798 115.298C109.198 113.362 111.638 115.298 111.638 115.298Z" fill="#C0C5CB"/>
<path d="M132.906 97.553C132.906 97.553 130.171 103.685 120.15 110.621C110.971 114.45 105.796 110.621 105.796 110.621C105.796 110.621 107.437 103.362 117.426 99.4895C132.906 96.4262 132.906 97.553 132.906 97.553Z" fill="#DFDFDF"/>
<path d="M136.779 80.4095C136.779 80.4095 138.13 82.521 132.906 91.2514C122.261 100.124 118.553 95.0422 118.553 95.0422C118.553 95.0422 117.256 87.5426 125.166 83.1883C128.611 80.9747 132.705 79.995 136.779 80.4095Z" fill="#8896A4"/>
<path d="M120.002 77.5103C120.002 77.5103 119.936 80.4094 116.293 90.8028C112.924 100.944 106.666 100.972 106.666 100.972C106.666 100.972 101.94 96.53 107.448 87.0721C115.812 77.5103 120.002 77.5103 120.002 77.5103Z" fill="#8896A4"/>
<path d="M127.704 53.3595C127.704 53.3595 126.61 62.5494 120.555 70.4483C114.198 79.2553 108.389 78.6809 108.389 78.6809C108.389 78.6809 106.102 71.2579 112.393 62.3907C114.68 58.1951 127.704 53.3595 127.704 53.3595Z" fill="#8896A4"/>
<path d="M100.326 58.3483C100.326 58.3483 105.829 66.6848 104.779 76.5804C103.947 87.4168 96.3107 90.026 96.3107 90.026C96.3107 90.026 90.4303 86.3009 91.1742 75.4535C91.1086 67.8718 100.326 58.3483 100.326 58.3483Z" fill="#8896A4"/>
<path d="M98.8707 93.6801C98.8707 93.6801 104.073 95.9392 103.947 103.335C103.116 114.171 95.4847 116.781 95.4847 116.781C95.4847 116.781 91.8744 121.124 92.6183 110.271C92.5144 107.394 94.3578 105.66 95.8074 103.04C97.7384 99.555 98.8707 93.6801 98.8707 93.6801Z" fill="#C0C5CB"/>
<path d="M88.0398 84.4355C88.0398 84.4355 94.057 89.2274 92.5144 100.299C88.9861 113.701 83.6472 111.633 83.6472 111.633C80.973 106.744 80.2461 101.025 81.6123 95.622C83.2589 91.6294 85.4197 87.8688 88.0398 84.4355Z" fill="#8896A4"/>
<path d="M72.3077 99.4019C72.3077 99.4019 82.4822 109.44 82.5752 114.226C83.5981 127.354 77.1761 129.116 77.1761 129.116C77.1761 129.116 70.0047 122.628 69.124 113.181C69.4741 106.3 72.3077 99.4019 72.3077 99.4019Z" fill="#8896A4"/>
<path d="M60.7273 109.538C61.7203 111.211 62.8627 112.791 64.1407 114.259C66.7499 117.41 67.7838 119.674 67.74 125.298C67.8221 130.658 64.1407 135.352 64.1407 135.352C64.1407 135.352 56.4496 129.975 55.7549 122.448C56.105 115.561 60.7273 109.538 60.7273 109.538Z" fill="#8896A4"/>
<path d="M1.30481 106.748C1.30481 106.748 11.1511 102.717 19.1868 105.654C27.0912 109.533 28.7049 117.634 28.7049 117.634C28.7049 117.634 18.2186 123.843 11.1238 119.16C2.25115 112.317 1.30481 106.748 1.30481 106.748Z" fill="#8896A4"/>
<path d="M17.8959 54.3223C17.8959 54.3223 26.2269 63.545 29.9959 71.2798C31.8077 76.3973 32.3704 81.8737 31.6369 87.2527C31.6369 87.2527 19.3126 83.4236 17.4418 75.1527C16.4641 68.2304 16.6175 61.1953 17.8959 54.3223Z" fill="#8896A4"/>
<path d="M120.812 36.3198C120.812 36.3198 120.948 48.3542 116.135 54.3222C109.773 63.1291 105.796 62.3633 105.796 62.3633C105.796 62.3633 102.421 55.6131 108.712 46.7405C111.004 42.5449 120.812 36.3198 120.812 36.3198Z" fill="#8896A4"/>
<path d="M105.501 21.5339C105.501 21.5339 107.098 42.5449 101.124 49.3498C95.4793 54.3222 93.7835 53.2281 93.7835 53.2281C93.7835 53.2281 87.4162 45.1924 93.7069 36.3198C95.9989 32.1297 105.501 21.5339 105.501 21.5339Z" fill="#C0C5CB"/>
<path d="M89.6699 18.8372C89.6699 18.8372 94.6806 37.4357 89.6699 43.3545L84.0247 48.3269C84.0247 48.3269 74.3534 42.2221 80.9559 31.0958C84.5827 25.5655 89.6699 18.8372 89.6699 18.8372Z" fill="#8896A4"/>
<path d="M77.5207 7.29513C76.7549 13.192 84.517 17.869 78.7624 28.5139C73.5493 36.3199 73.1172 35.1274 73.1172 35.1274C73.1172 35.1274 64.9612 26.758 71.5637 15.6262C75.1904 10.1013 77.6301 6.45819 77.5207 7.29513Z" fill="#8896A4"/>
<path d="M47.577 129.171C48.2225 120.911 52.254 125.134 55.7823 114.259C56.7997 110.457 53.9224 103.034 53.9224 103.034C53.9224 103.034 40.0008 107.41 42.9274 122.448C43.7041 126.589 47.5059 130.117 47.577 129.171Z" fill="#8896A4"/>
<path d="M32.0745 140.319C37.8565 138.092 39.9625 143.021 48.4358 141.872C51.3295 141.325 54.1029 135.91 54.1029 135.91C54.1029 135.91 45.4765 128.12 37.5721 133.585C34.9792 135.379 31.4126 140.581 32.0745 140.319Z" fill="#DFE2E5"/>
<path d="M60.968 0.0799481C61.7448 6.41441 52.9761 8.53683 51.067 19.8054C50.3176 26.0961 53.2003 30.1221 53.2003 30.1221C53.2003 30.1221 69.124 25.4506 65.7817 10.9382C64.8628 6.8192 60.8586 -0.866392 60.968 0.0799481Z" fill="#DFE2E5"/>
<path d="M86.5355 72.1112C87.2958 67.762 88.4945 63.5009 90.113 59.3931C92.1753 53.8354 94.3579 54.3222 94.3579 54.3222C94.3579 54.3222 95.7473 56.8166 93.7124 62.3798C92.4488 66.2417 86.5355 72.1112 86.5355 72.1112Z" fill="#8896A4"/>
<path d="M0.27639 72.1112C0.27639 72.1112 6.92812 73.0357 14.3621 83.1992C21.4733 92.3891 19.1047 100.944 19.1047 100.944C19.1047 100.944 6.0693 101.36 2.4207 93.6801C-1.13491 81.0987 0.27639 72.1112 0.27639 72.1112Z" fill="#8896A4"/>
<path d="M20.9537 86.1969C26.3637 92.4438 21.7414 98.1492 27.0091 108.307C28.9948 111.71 37.4025 112.771 37.4025 112.771C37.4025 112.771 43.4744 98.461 33.0263 90.9833C29.6075 88.5053 20.3355 85.4748 20.9537 86.1969Z" fill="#DFDFDF"/>
<path d="M59.677 78.6864C57.1772 70.7929 65.7325 72.4887 64.8956 61.0998C64.5127 53.3595 60.6453 46.0951 60.6453 46.0951C60.6453 46.0951 47.8724 59.0758 53.2004 70.7765C55.7549 76.4217 59.9615 79.5944 59.677 78.6864Z" fill="#CDCDCD"/>
<path d="M84.517 50.4493C84.517 50.4493 85.1734 62.9159 80.1409 68.8401C74.4957 73.8124 70.6228 72.1222 70.6228 72.1222C70.6228 72.1222 69.1021 65.3009 73.5275 59.3329C77.1706 53.7916 84.517 50.4493 84.517 50.4493Z" fill="#DFDFDF"/>
<path d="M64.9557 31.5773C64.9557 31.5773 75.1631 37.4304 76.7549 49.3499C76.7549 56.8713 73.5494 59.322 73.5494 59.322C73.5494 59.322 67.74 58.031 64.9557 48.3269C63.2053 41.9487 64.9557 31.5773 64.9557 31.5773Z" fill="#DFDFDF"/>
<path d="M66.2631 71.7611C66.2631 71.7611 74.6708 83.4399 70.7541 94.8124C67.379 101.535 66.2631 102.071 66.2631 102.071C66.2631 102.071 59.3543 97.3506 60.3225 88.3959C60.8239 82.429 62.8714 76.6958 66.2631 71.7611Z" fill="#DFE2E5"/>
<path d="M49.2345 74.1899C46.2861 84.4355 41.1277 82.067 41.1277 93.6801C41.1277 97.0716 49.5135 103.844 49.5135 103.844C51.3987 98.8167 52.909 93.657 54.0318 88.4069C55.7549 79.9719 49.497 73.2983 49.2345 74.1899Z" fill="#C0C5CB"/>
<path d="M39.1694 16.578C39.1694 16.578 46.7729 19.8054 48.5452 31.5772C49.5135 39.0002 45.4819 45.4496 43.8682 51.3683C43.8682 51.3683 37.9003 48.3269 36.571 39.9685C35.234 32.082 36.1342 23.9787 39.1694 16.578Z" fill="#8896A4"/>
<path d="M26.9435 33.9731C26.9435 33.9731 35.1979 41.1883 37.8838 49.3498C39.7163 57.9599 34.8533 60.1315 34.8533 60.1315C34.8533 60.1315 25.2094 59.8416 24.4983 51.3792C24.3889 40.1599 26.9435 33.9731 26.9435 33.9731Z" fill="#C0C5CB"/>
<path d="M57.4178 30.9317C57.4178 30.9317 61.2798 35.9533 59.3543 44.3227C56.4824 52.6428 50.9466 54.3222 50.9466 54.3222C50.9466 54.3222 44.9294 46.9429 48.6929 39.323C54.0318 30.2862 57.4178 30.9317 57.4178 30.9317Z" fill="#DFE2E5"/>
<path d="M35.9857 59.7869C38.0941 61.2452 39.891 63.1088 41.2716 65.2689C42.6522 67.429 43.5888 69.8424 44.0268 72.3683C44.9951 84.4026 38.2777 85.431 38.2777 85.431C38.2777 85.431 32.441 79.2333 33.0592 70.7546C34.1915 62.3578 35.9857 59.7869 35.9857 59.7869Z" fill="#C0C5CB"/>
<path d="M21.3147 132.639C28.218 131.731 28.6939 134.92 37.4298 133.733C40.4165 133.186 41.2589 128.345 41.2589 128.345C41.2589 128.345 36.9758 122.874 28.9073 126.605C25.2204 128.323 20.5871 132.732 21.3147 132.639Z" fill="#DFE2E5"/>
<path d="M82.6845 70.7765C82.6845 70.7765 87.4162 73.6812 84.5443 86.093C83.7074 88.9812 76.7548 93.6856 76.7548 93.6856C76.7548 93.6856 70.4313 84.8239 74.5339 76.8046C75.2358 75.1673 76.3605 73.746 77.7928 72.6867C79.2251 71.6274 80.9134 70.9681 82.6845 70.7765Z" fill="#8896A4"/>
<path d="M44.9951 50.1594C45.0006 50.1353 45.0141 50.1137 45.0335 50.0982C45.0529 50.0828 45.077 50.0743 45.1017 50.0743C45.1265 50.0743 45.1506 50.0828 45.17 50.0982C45.1894 50.1137 45.2029 50.1353 45.2084 50.1594C45.3835 51.9318 46.8823 55.6296 47.3965 57.7575C48.031 60.3011 49.2016 70.5413 49.2016 70.5413C48.9281 71.2688 43.5236 65.2954 43.3486 58.3428C43.261 54.8693 44.6997 51.9646 44.9951 50.1594Z" fill="#8896A4"/>
<path d="M68.309 145.822C68.309 145.822 66.4053 139.351 67.7619 133.109C68.9709 127.026 71.8153 126.589 71.8153 126.589C71.8153 126.589 74.8294 133.153 71.8153 139.941L68.309 145.822Z" fill="#8896A4"/>
<path d="M67.2641 112.749C67.2641 112.749 64.8463 111.808 63.3748 108.105C63.2671 107.85 63.1935 107.581 63.156 107.306C62.6692 103.641 66.0114 100.994 66.0114 100.994C66.0114 100.994 66.7718 104.823 67.2586 106.519C67.2804 106.669 67.2804 106.822 67.2586 106.973L67.2641 112.749Z" fill="#DFE2E5"/>
<path d="M39.0107 122.42C39.0107 122.42 36.5163 123.142 33.1029 121.091C32.8618 120.952 32.6394 120.783 32.441 120.588C29.8372 117.973 30.8875 113.838 30.8875 113.838C30.8875 113.838 33.8195 116.431 35.2308 117.475C35.3512 117.563 35.4004 117.727 35.4879 117.847L39.0107 122.42Z" fill="#8896A4"/>
<path d="M84.1724 123.662C84.1649 123.674 84.1552 123.683 84.1438 123.691C84.1324 123.699 84.1196 123.704 84.1062 123.707C84.0927 123.71 84.0788 123.71 84.0653 123.707C84.0518 123.705 84.039 123.7 84.0275 123.692C84.016 123.685 84.0061 123.675 83.9983 123.664C83.9906 123.652 83.9852 123.639 83.9824 123.626C83.9796 123.612 83.9795 123.599 83.9821 123.585C83.9846 123.572 83.9898 123.559 83.9974 123.547C84.7687 121.939 85.4032 118.011 86.0596 115.889C86.8419 113.389 89.67 105.643 89.67 105.643C90.2771 105.162 90.6765 112.054 88.8713 116.162C87.1701 119.215 85.3813 122.278 84.1724 123.662Z" fill="#8896A4"/>
</svg>
