<svg width="155" height="211" viewBox="0 0 155 211" fill="none" xmlns="http://www.w3.org/2000/svg">
<g clip-path="url(#clip0)">
<path d="M15.0846 165.665L14.1106 166.897C12.6934 165.792 11.5246 165.295 9.79569 165.295C6.1334 165.295 3.07986 167.886 3.07986 174.602C3.07986 181.011 6.00191 183.855 9.70316 183.855C11.8947 183.855 13.1122 183.056 14.3589 182.068L15.333 183.3C14.5762 184.025 13.6825 184.591 12.7041 184.967C11.7258 185.342 10.6824 185.519 9.63498 185.486C4.76491 185.486 1.13184 181.697 1.13184 174.582C1.13184 167.37 4.98406 163.707 9.6642 163.707C11.6569 163.63 13.6015 164.332 15.0846 165.665Z" fill="#282828"/>
<path d="M40.7789 165.582H32.1248V173.443H39.6101V174.982H32.1248V183.606H41.2123V185.15H30.2742V164.063H40.9883L40.7789 165.582Z" fill="#282828"/>
<path d="M70.7591 185.17H68.324L58.3842 166.099C58.4768 167.56 58.6326 169.581 58.6326 173.37V185.17H56.8745V164.063H59.2462L69.2494 183.115C69.1909 182.223 69.0059 179.603 69.0059 176.861V164.063H70.7591V185.17Z" fill="#282828"/>
<path d="M99.7215 165.694H93.5316V185.175H91.7151V165.694H85.457V164.063H99.9406L99.7215 165.694Z" fill="#282828"/>
<path d="M120.556 175.707H116.338V185.17H114.488V164.063H119.601C124.681 164.063 127.116 166.064 127.116 169.795C127.116 172.936 125.392 174.602 122.401 175.371L128.197 185.17H125.976L120.556 175.707ZM119.845 174.202C123.205 174.202 125.143 172.873 125.143 169.795C125.143 166.99 123.575 165.573 119.538 165.573H116.338V174.202H119.845Z" fill="#282828"/>
<path d="M153.984 165.582H145.33V173.443H152.815V174.982H145.33V183.606H154.417V185.15H143.479V164.063H154.193L153.984 165.582Z" fill="#282828"/>
<path d="M21.8588 145.435C21.8588 151.98 16.789 154.225 9.61055 154.225H1.10254V123.32H8.40764C16.0293 123.32 20.5146 125.755 20.5146 131.112C20.5146 134.925 17.7338 137.258 14.729 137.881C18.328 138.529 21.8588 140.185 21.8588 145.435ZM5.34924 126.685V136.425H10.0148C13.4676 136.425 16.1608 134.721 16.1608 131.443C16.1608 127.63 13.4238 126.69 8.85569 126.69L5.34924 126.685ZM17.3734 145.435C17.3734 141.081 14.1397 139.693 10.419 139.693H5.36385V150.816H9.62516C14.1105 150.816 17.3881 149.92 17.3881 145.435H17.3734Z" fill="#282828"/>
<path d="M46.0435 151.893L45.1036 154.766C42.727 154.493 41.2075 153.553 40.4819 151.221C38.8261 153.685 36.3131 154.766 33.4398 154.766C28.7304 154.766 25.9058 151.844 25.9058 147.631C25.9058 142.562 29.719 139.839 36.3131 139.839H39.9462V138.086C39.9462 134.677 38.2855 133.425 35.0128 133.425C32.8379 133.514 30.6895 133.936 28.6427 134.677L27.6103 131.672C30.2095 130.636 32.9749 130.08 35.7725 130.031C41.4705 130.031 44.0516 132.953 44.0516 137.877V148.688C44.0711 150.772 44.8357 151.459 46.0435 151.893ZM39.9462 147.997V142.562H36.8488C32.4998 142.562 30.3034 144.178 30.3034 147.407C30.3034 150.188 31.6914 151.669 34.3846 151.669C36.805 151.669 38.602 150.456 39.9462 147.992V147.997Z" fill="#282828"/>
<path d="M90.8334 153.149C89.2816 154.229 87.43 154.794 85.5397 154.766C81.5462 154.766 79.1696 152.433 79.1696 148.035V133.771H75.0447V130.586H79.1696V125.229L83.2946 124.742V130.586H88.9L88.452 133.771H83.2946V147.855C83.2946 150.232 84.0592 151.357 86.1192 151.357C87.2444 151.325 88.3359 150.967 89.2604 150.324L90.8334 153.149Z" fill="#282828"/>
<path d="M107.694 130.318L106.934 134.355C106.262 134.169 105.567 134.079 104.869 134.088C101.908 134.088 100.204 136.191 99.215 140.726V154.225H95.0901V130.586H98.6355L99.0397 135.388C100.296 131.843 102.493 130.031 105.371 130.031C106.154 130.035 106.933 130.132 107.694 130.318Z" fill="#282828"/>
<path d="M129.716 143.818H114.648C115.047 149.292 117.604 151.401 121.013 151.401C123.346 151.401 125.099 150.772 127.159 149.336L128.956 151.805C126.628 153.73 123.698 154.778 120.677 154.766C114.083 154.766 110.226 150.144 110.226 142.654C110.226 135.295 113.947 130.05 120.049 130.05C126.419 130.05 129.789 134.492 129.789 141.709C129.809 142.518 129.76 143.282 129.716 143.818ZM125.728 140.502C125.728 135.88 123.887 133.323 120.161 133.323C117.025 133.323 114.96 135.519 114.648 140.769H125.728V140.502Z" fill="#282828"/>
<path d="M154.383 143.818H139.315C139.719 149.292 142.276 151.401 145.685 151.401C148.013 151.401 149.766 150.772 151.826 149.336L153.623 151.805C151.302 153.725 148.381 154.772 145.369 154.766C138.775 154.766 134.917 150.144 134.917 142.654C134.917 135.295 138.643 130.05 144.74 130.05C151.11 130.05 154.481 134.492 154.481 141.709C154.476 142.518 154.432 143.282 154.383 143.818ZM150.395 140.502C150.395 135.88 148.554 133.323 144.833 133.323C141.692 133.323 139.627 135.519 139.315 140.769H150.395V140.502Z" fill="#282828"/>
<path d="M74.6211 157.474C71.0124 157.693 65.5336 157.289 40.2287 158.005C22.7792 158.501 0.91748 159.831 0.91748 159.831C0.91748 159.831 26.7873 159.855 75.5123 159.831C114.225 159.831 158.498 159.831 154.179 159.831C154.179 159.831 151.612 159.451 114.181 158.18C86.7865 157.25 76.8906 157.474 76.8906 157.474H74.6211Z" fill="#282828"/>
<path d="M45.3618 116.005L47.3098 114.822C47.3098 114.822 52.74 120.028 55.5403 124.908C58.3406 129.787 60.1327 137.117 60.1327 137.117C60.1327 137.117 66.4638 128.502 69.5807 125.677C70.3988 126.106 71.4362 126.563 71.6699 126.651C71.6699 126.651 64.0288 135.997 62.5775 142.264C61.1262 148.532 59.5678 157.79 59.5678 157.79H54.5516C54.5516 157.79 57.2789 140.701 54.839 131.94C52.3991 123.179 45.3618 116.005 45.3618 116.005Z" fill="#282828"/>
<path d="M87.3659 114.68C87.3659 114.68 85.8124 119.112 79.4959 121.44C75.3904 122.901 69.6291 121.44 69.6291 121.44C69.6291 121.44 69.074 117.12 75.1713 114.68C81.3806 112.241 87.3659 114.68 87.3659 114.68Z" fill="#A4CB76"/>
<path d="M100.671 102.651C100.671 102.651 100.671 106.669 92.0365 111.267C83.7038 115.864 79.2526 111.267 79.2526 111.267C79.2526 111.267 77.2412 105.807 88.1551 102.651C98.4991 100.927 100.671 102.651 100.671 102.651Z" fill="#A4CB76"/>
<path d="M119.606 86.8529C119.606 86.8529 117.171 92.3122 108.249 98.4874C100.077 101.896 95.4697 98.4874 95.4697 98.4874C95.4697 98.4874 96.9308 92.0249 105.823 88.5769C119.606 85.8496 119.606 86.8529 119.606 86.8529Z" fill="#D5DF7C"/>
<path d="M123.054 71.5901C123.054 71.5901 124.257 73.4699 119.606 81.2425C110.129 89.1418 106.827 84.6175 106.827 84.6175C106.827 84.6175 105.673 77.9406 112.715 74.064C115.782 72.0933 119.427 71.2211 123.054 71.5901Z" fill="#5AB031"/>
<path d="M108.117 69.0089C108.117 69.0089 108.059 71.59 104.815 80.8432C101.815 89.8723 96.2441 89.8966 96.2441 89.8966C96.2441 89.8966 92.0364 85.9421 96.9405 77.5218C104.387 69.0089 108.117 69.0089 108.117 69.0089Z" fill="#5AB031"/>
<path d="M114.974 47.5076C114.974 47.5076 114 55.6893 108.609 62.7217C102.95 70.5625 97.7782 70.0511 97.7782 70.0511C97.7782 70.0511 95.7425 63.4424 101.343 55.548C103.379 51.8127 114.974 47.5076 114.974 47.5076Z" fill="#5AB031"/>
<path d="M90.5998 51.9491C90.5998 51.9491 95.4991 59.3711 94.5641 68.181C93.8238 77.8286 87.0252 80.1516 87.0252 80.1516C87.0252 80.1516 81.7899 76.8351 82.4522 67.1778C82.3938 60.4279 90.5998 51.9491 90.5998 51.9491Z" fill="#5AB031"/>
<path d="M89.3044 83.4048C89.3044 83.4048 93.9358 85.4162 93.8238 92.0005C93.0835 101.648 86.2898 103.971 86.2898 103.971C86.2898 103.971 83.0755 107.838 83.7379 98.1758C83.6453 95.6141 85.2865 94.0703 86.5771 91.7375C88.2962 88.6353 89.3044 83.4048 89.3044 83.4048Z" fill="#A4CB76"/>
<path d="M79.6615 75.1744C79.6615 75.1744 85.0186 79.4406 83.6452 89.2976C80.504 101.229 75.7508 99.3884 75.7508 99.3884C73.37 95.0356 72.7228 89.9437 73.9392 85.1337C75.4051 81.5791 77.3288 78.231 79.6615 75.1744Z" fill="#5AB031"/>
<path d="M65.6552 88.4989C65.6552 88.4989 74.7135 97.4355 74.7963 101.697C75.707 113.385 69.9895 114.953 69.9895 114.953C69.9895 114.953 63.6049 109.177 62.8208 100.767C63.1325 94.6401 65.6552 88.4989 65.6552 88.4989Z" fill="#5AB031"/>
<path d="M55.3454 97.5232C56.2294 99.013 57.2465 100.42 58.3843 101.726C60.7073 104.531 61.6277 106.547 61.5888 111.554C61.6618 116.326 58.3843 120.505 58.3843 120.505C58.3843 120.505 51.537 115.718 50.9185 109.017C51.2301 102.885 55.3454 97.5232 55.3454 97.5232Z" fill="#5AB031"/>
<path d="M2.44165 95.0394C2.44165 95.0394 11.2078 91.4502 18.3619 94.0654C25.3992 97.5183 26.8358 104.731 26.8358 104.731C26.8358 104.731 17.4999 110.258 11.1834 106.09C3.28417 99.9972 2.44165 95.0394 2.44165 95.0394Z" fill="#5AB031"/>
<path d="M17.2126 48.3647C17.2126 48.3647 24.6297 56.5756 27.9852 63.4619C29.5983 68.018 30.0992 72.8936 29.4462 77.6825C29.4462 77.6825 18.474 74.2735 16.8084 66.9099C15.938 60.7471 16.0745 54.4837 17.2126 48.3647Z" fill="#5AB031"/>
<path d="M108.838 32.3373C108.838 32.3373 108.96 43.0514 104.674 48.3647C99.0104 56.2055 95.4699 55.5237 95.4699 55.5237C95.4699 55.5237 92.465 49.514 98.0656 41.6148C100.106 37.8794 108.838 32.3373 108.838 32.3373Z" fill="#5AB031"/>
<path d="M95.2068 19.1735C95.2068 19.1735 96.6289 37.8794 91.3108 43.9378C86.2848 48.3647 84.7751 47.3907 84.7751 47.3907C84.7751 47.3907 79.1064 40.2365 84.7069 32.3373C86.7475 28.6068 95.2068 19.1735 95.2068 19.1735Z" fill="#A4CB76"/>
<path d="M81.113 16.7726C81.113 16.7726 85.574 33.3308 81.113 38.6002L76.0871 43.0271C76.0871 43.0271 67.4768 37.5921 73.355 27.6864C76.5839 22.7627 81.113 16.7726 81.113 16.7726Z" fill="#5AB031"/>
<path d="M70.2964 6.49668C69.6145 11.7466 76.5252 15.9105 71.4019 25.3877C66.7607 32.3373 66.3759 31.2756 66.3759 31.2756C66.3759 31.2756 59.1147 23.8244 64.9928 13.9138C68.2217 8.99503 70.3938 5.75156 70.2964 6.49668Z" fill="#B5CD32"/>
<path d="M43.6377 115.002C44.2123 107.648 47.8016 111.408 50.9428 101.726C51.8486 98.3414 49.287 91.7327 49.287 91.7327C49.287 91.7327 36.8926 95.6287 39.4981 109.017C40.1897 112.703 43.5744 115.844 43.6377 115.002Z" fill="#5AB031"/>
<path d="M29.836 124.927C34.9836 122.945 36.8586 127.333 44.4024 126.31C46.9786 125.823 49.4478 121.002 49.4478 121.002C49.4478 121.002 41.7677 114.067 34.7304 118.932C32.422 120.529 29.2467 125.161 29.836 124.927Z" fill="#686868"/>
<path d="M55.5596 0.0730695C56.2511 5.71261 48.4444 7.6022 46.7447 17.6345C46.0775 23.2351 48.6441 26.8195 48.6441 26.8195C48.6441 26.8195 62.8208 22.6605 59.8452 9.74016C59.0271 6.07299 55.4622 -0.769453 55.5596 0.0730695Z" fill="#686868"/>
<path d="M78.3223 64.2021C78.9992 60.33 80.0663 56.5364 81.5073 52.8792C83.3433 47.9312 85.2865 48.3647 85.2865 48.3647C85.2865 48.3647 86.5235 50.5854 84.7118 55.5383C83.5868 58.9766 78.3223 64.2021 78.3223 64.2021Z" fill="#5AB031"/>
<path d="M1.5261 64.2021C1.5261 64.2021 7.4481 65.0252 14.0665 74.0738C20.3976 82.2555 18.2889 89.8723 18.2889 89.8723C18.2889 89.8723 6.6835 90.2424 3.43517 83.4048C0.269621 72.2037 1.5261 64.2021 1.5261 64.2021Z" fill="#5AB031"/>
<path d="M19.9352 76.7426C24.7517 82.3042 20.6365 87.3837 25.3263 96.4274C27.0942 99.4566 34.5795 100.401 34.5795 100.401C34.5795 100.401 39.9853 87.6613 30.6834 81.0039C27.6396 78.7978 19.3849 76.0997 19.9352 76.7426Z" fill="#D5DF7C"/>
<path d="M54.4102 70.056C52.1846 63.0285 59.8014 64.5382 59.0563 54.3987C58.7154 47.5076 55.2722 41.0401 55.2722 41.0401C55.2722 41.0401 43.9006 52.5968 48.6441 63.0139C50.9184 68.0398 54.6635 70.8644 54.4102 70.056Z" fill="#B5CD32"/>
<path d="M76.5253 44.9167C76.5253 44.9167 77.1097 56.0156 72.6292 61.2899C67.6033 65.7167 64.1553 64.2119 64.1553 64.2119C64.1553 64.2119 62.8014 58.1389 66.7413 52.8257C69.9848 47.8923 76.5253 44.9167 76.5253 44.9167Z" fill="#D5DF7C"/>
<path d="M59.1099 28.1149C59.1099 28.1149 68.1974 33.3259 69.6146 43.9378C69.6146 50.6341 66.7607 52.8159 66.7607 52.8159C66.7607 52.8159 61.5887 51.6666 59.1099 43.0271C57.5514 37.3486 59.1099 28.1149 59.1099 28.1149Z" fill="#D5DF7C"/>
<path d="M60.2738 63.8905C60.2738 63.8905 67.7591 74.2881 64.2721 84.4129C61.2673 90.3983 60.2738 90.8755 60.2738 90.8755C60.2738 90.8755 54.1229 86.6727 54.9849 78.7004C55.4313 73.3881 57.2542 68.2838 60.2738 63.8905Z" fill="#686868"/>
<path d="M45.1134 66.0528C42.4885 75.1744 37.896 73.0657 37.896 83.4048C37.896 86.4243 45.3618 92.4534 45.3618 92.4534C47.0402 87.9779 48.3848 83.3842 49.3845 78.7101C50.9186 71.2004 45.3472 65.2589 45.1134 66.0528Z" fill="#A4CB76"/>
<path d="M36.1522 14.7612C36.1522 14.7612 42.9216 17.6345 44.4995 28.1149C45.3615 34.7236 41.7723 40.4654 40.3356 45.7348C40.3356 45.7348 35.0224 43.0271 33.839 35.5856C32.6486 28.5644 33.45 21.35 36.1522 14.7612Z" fill="#686868"/>
<path d="M25.2679 30.248C25.2679 30.248 32.6168 36.6716 35.008 43.9378C36.6395 51.6033 32.31 53.5367 32.31 53.5367C32.31 53.5367 23.724 53.2786 23.0909 45.7446C22.9935 35.7561 25.2679 30.248 25.2679 30.248Z" fill="#A4CB76"/>
<path d="M52.3988 27.5403C52.3988 27.5403 55.8371 32.011 54.1228 39.4622C51.566 46.8696 46.6375 48.3647 46.6375 48.3647C46.6375 48.3647 41.2804 41.795 44.631 35.0109C49.3842 26.9656 52.3988 27.5403 52.3988 27.5403Z" fill="#686868"/>
<path d="M33.3179 53.2299C35.195 54.5282 36.7948 56.1874 38.0239 58.1105C39.2531 60.0336 40.0869 62.1823 40.4769 64.431C41.3389 75.1452 35.3585 76.0608 35.3585 76.0608C35.3585 76.0608 30.1621 70.543 30.7124 62.9944C31.7206 55.5188 33.3179 53.2299 33.3179 53.2299Z" fill="#A4CB76"/>
<path d="M20.2565 118.089C26.4025 117.281 26.8262 120.12 34.6037 119.063C37.2628 118.576 38.0128 114.266 38.0128 114.266C38.0128 114.266 34.1995 109.396 27.0162 112.718C23.7337 114.247 19.6088 118.172 20.2565 118.089Z" fill="#686868"/>
<path d="M74.8938 63.0139C74.8938 63.0139 79.1065 65.5999 76.5497 76.65C75.8045 79.2214 69.6147 83.4097 69.6147 83.4097C69.6147 83.4097 63.9849 75.5202 67.6374 68.3807C68.2623 66.9229 69.2636 65.6576 70.5388 64.7145C71.814 63.7714 73.317 63.1845 74.8938 63.0139Z" fill="#5AB031"/>
<path d="M41.3389 44.6586C41.3438 44.637 41.3559 44.6178 41.3732 44.6041C41.3904 44.5903 41.4118 44.5828 41.4339 44.5828C41.456 44.5828 41.4774 44.5903 41.4946 44.6041C41.5119 44.6178 41.524 44.637 41.5289 44.6586C41.6847 46.2365 43.0191 49.5286 43.4769 51.4231C44.0418 53.6877 45.084 62.8044 45.084 62.8044C44.8405 63.4522 40.0289 58.134 39.873 51.9442C39.7951 48.8517 41.0759 46.2657 41.3389 44.6586Z" fill="#686868"/>
<path d="M62.0953 129.826C62.0953 129.826 60.4006 124.065 61.6083 118.508C62.6846 113.093 65.2171 112.703 65.2171 112.703C65.2171 112.703 67.9005 118.547 65.2171 124.591L62.0953 129.826Z" fill="#5AB031"/>
<path d="M61.1652 100.382C61.1652 100.382 59.0126 99.5442 57.7025 96.2472C57.6066 96.0198 57.5411 95.7807 57.5077 95.5362C57.0743 92.2732 60.0499 89.9161 60.0499 89.9161C60.0499 89.9161 60.7269 93.3252 61.1603 94.8349C61.1797 94.9689 61.1797 95.1051 61.1603 95.2391L61.1652 100.382Z" fill="#686868"/>
<path d="M36.0112 108.992C36.0112 108.992 33.7905 109.635 30.7516 107.809C30.5369 107.685 30.3389 107.534 30.1623 107.361C27.8441 105.033 28.7792 101.351 28.7792 101.351C28.7792 101.351 31.3896 103.659 32.646 104.59C32.7532 104.668 32.797 104.814 32.8749 104.921L36.0112 108.992Z" fill="#5AB031"/>
<path d="M76.2185 110.098C76.2118 110.108 76.2031 110.117 76.193 110.124C76.1829 110.13 76.1715 110.135 76.1595 110.138C76.1475 110.14 76.1352 110.14 76.1231 110.138C76.1111 110.136 76.0997 110.131 76.0894 110.124C76.0792 110.118 76.0704 110.109 76.0635 110.099C76.0566 110.089 76.0518 110.077 76.0493 110.065C76.0468 110.053 76.0467 110.041 76.049 110.029C76.0513 110.017 76.0559 110.006 76.0626 109.995C76.7493 108.564 77.3143 105.067 77.8987 103.177C78.5951 100.952 81.1129 94.0557 81.1129 94.0557C81.6535 93.6271 82.009 99.7634 80.4019 103.421C78.8873 106.138 77.2948 108.866 76.2185 110.098Z" fill="#5AB031"/>
<path d="M3.86768 205.883H2.03027V195.466H3.79534L7.23866 202.382L10.682 195.466H12.447V205.883H10.6096V199.662L7.58588 205.883H6.89143L3.86768 199.662V205.883ZM24.0263 205.883H17.2265V195.466H24.0263V197.303H19.1941V199.531H23.1583V201.369H19.1941V204.045H24.0263V205.883ZM30.5056 205.883H28.5091V195.466H30.5056L35.034 202.41V195.466H37.0305V205.883H35.034L30.5056 198.938V205.883ZM46.1816 205.883H44.214V197.303H40.9298V195.466H49.4658V197.303H46.1816V205.883ZM57.8477 206.1C56.8205 206.1 55.9259 205.876 55.1639 205.427C54.402 204.974 53.816 204.337 53.4061 203.517C53.001 202.697 52.7985 201.75 52.7985 200.674C52.7985 199.599 53.001 198.651 53.4061 197.831C53.816 197.012 54.402 196.377 55.1639 195.929C55.9259 195.476 56.8205 195.249 57.8477 195.249C58.8749 195.249 59.7695 195.476 60.5315 195.929C61.2934 196.377 61.877 197.012 62.2821 197.831C62.692 198.651 62.8969 199.599 62.8969 200.674C62.8969 201.75 62.692 202.697 62.2821 203.517C61.877 204.337 61.2934 204.974 60.5315 205.427C59.7695 205.876 58.8749 206.1 57.8477 206.1ZM57.9056 204.248C58.5421 204.248 59.0775 204.101 59.5115 203.807C59.9455 203.512 60.271 203.098 60.4881 202.562C60.7051 202.027 60.8136 201.398 60.8136 200.674C60.8136 199.556 60.558 198.68 60.0468 198.048C59.5356 197.417 58.7833 197.101 57.7898 197.101C57.1532 197.101 56.6179 197.248 56.1839 197.542C55.7499 197.836 55.4243 198.251 55.2073 198.786C54.9903 199.322 54.8818 199.951 54.8818 200.674C54.8818 201.793 55.1374 202.668 55.6486 203.3C56.1598 203.932 56.9121 204.248 57.9056 204.248ZM75.1918 205.883H72.9638L71.2493 202.353H69.0575V205.883H67.0899V195.466H71.4881C71.8208 195.466 72.1102 195.485 72.3561 195.524C73.2579 195.664 73.9307 196.035 74.3744 196.638C74.8229 197.236 75.0471 197.993 75.0471 198.909C75.0471 199.637 74.9024 200.272 74.6131 200.812C74.3237 201.352 73.8897 201.755 73.311 202.02L75.1918 205.883ZM69.0575 197.303V200.515H71.4012C71.6761 200.515 71.898 200.491 72.0668 200.443C72.4285 200.346 72.684 200.154 72.8335 199.864C72.9879 199.57 73.065 199.252 73.065 198.909C73.065 198.567 72.9879 198.251 72.8335 197.962C72.684 197.667 72.4285 197.472 72.0668 197.376C71.898 197.327 71.6761 197.303 71.4012 197.303H69.0575ZM85.1762 205.883V195.466H89.5744C89.9072 195.466 90.1965 195.485 90.4425 195.524C91.3443 195.664 92.0171 196.035 92.4607 196.638C92.9092 197.236 93.1335 197.993 93.1335 198.909C93.1335 199.821 92.9092 200.578 92.4607 201.181C92.0122 201.784 91.3395 202.155 90.4425 202.295C90.1965 202.333 89.9072 202.353 89.5744 202.353H87.1438V205.883H85.1762ZM89.4876 200.515C89.7625 200.515 89.9843 200.491 90.1531 200.443C90.5148 200.346 90.7704 200.154 90.9199 199.864C91.0742 199.57 91.1514 199.252 91.1514 198.909C91.1514 198.567 91.0742 198.251 90.9199 197.962C90.7704 197.667 90.5148 197.472 90.1531 197.376C89.9843 197.327 89.7625 197.303 89.4876 197.303H87.1438V200.515H89.4876ZM101.805 206.1C100.778 206.1 99.8835 205.876 99.1215 205.427C98.3596 204.974 97.7736 204.337 97.3637 203.517C96.9586 202.697 96.7561 201.75 96.7561 200.674C96.7561 199.599 96.9586 198.651 97.3637 197.831C97.7736 197.012 98.3596 196.377 99.1215 195.929C99.8835 195.476 100.778 195.249 101.805 195.249C102.833 195.249 103.727 195.476 104.489 195.929C105.251 196.377 105.835 197.012 106.24 197.831C106.65 198.651 106.855 199.599 106.855 200.674C106.855 201.75 106.65 202.697 106.24 203.517C105.835 204.337 105.251 204.974 104.489 205.427C103.727 205.876 102.833 206.1 101.805 206.1ZM101.863 204.248C102.5 204.248 103.035 204.101 103.469 203.807C103.903 203.512 104.229 203.098 104.446 202.562C104.663 202.027 104.771 201.398 104.771 200.674C104.771 199.556 104.516 198.68 104.004 198.048C103.493 197.417 102.741 197.101 101.747 197.101C101.111 197.101 100.576 197.248 100.142 197.542C99.7075 197.836 99.382 198.251 99.1649 198.786C98.9479 199.322 98.8394 199.951 98.8394 200.674C98.8394 201.793 99.095 202.668 99.6062 203.3C100.117 203.932 100.87 204.248 101.863 204.248ZM119.149 205.883H116.921L115.207 202.353H113.015V205.883H111.047V195.466H115.446C115.778 195.466 116.068 195.485 116.314 195.524C117.216 195.664 117.888 196.035 118.332 196.638C118.78 197.236 119.005 197.993 119.005 198.909C119.005 199.637 118.86 200.272 118.571 200.812C118.281 201.352 117.847 201.755 117.269 202.02L119.149 205.883ZM113.015 197.303V200.515H115.359C115.634 200.515 115.856 200.491 116.024 200.443C116.386 200.346 116.642 200.154 116.791 199.864C116.945 199.57 117.023 199.252 117.023 198.909C117.023 198.567 116.945 198.251 116.791 197.962C116.642 197.667 116.386 197.472 116.024 197.376C115.856 197.327 115.634 197.303 115.359 197.303H113.015ZM127.872 205.883H125.905V197.303H122.621V195.466H131.156V197.303H127.872V205.883ZM143.365 205.883H141.339L140.666 203.713H136.746L136.087 205.883H134.062L137.245 195.466H140.182L143.365 205.883ZM138.692 197.311L137.303 201.875H140.102L138.692 197.311ZM154.007 205.883H147.555V195.466H149.522V204.045H154.007V205.883Z" fill="#FF1D89"/>
</g>
<defs>
<clipPath id="clip0">
<rect width="153.894" height="211" fill="white" transform="translate(0.91748)"/>
</clipPath>
</defs>
</svg>
