<svg width="24" height="24" viewBox="0 0 24 24" fill="none" xmlns="http://www.w3.org/2000/svg">
<path d="M7.23359 6.23646C7.45426 6.37063 7.68414 6.4694 7.91754 6.53515L11.0247 5.24789C11.0728 5.16202 11.1166 5.07272 11.1558 4.98016L9.35342 4.08071C9.2371 4.55757 8.69455 4.78399 8.27271 4.52759L6.64069 6.16007C6.82295 6.1009 7.03275 6.11419 7.23359 6.23646Z" fill="black"/>
<path d="M11.2969 4.55276C11.4757 3.81584 12.5242 3.81575 12.7032 4.55248L14.225 6.3916C14.2525 6.40404 14.2801 6.41605 14.308 6.4276C14.7042 6.59175 15.1336 6.66003 15.5612 6.62688C15.9888 6.59372 16.4025 6.46008 16.7687 6.23681C17.4163 5.84266 18.1588 6.58411 17.7641 7.2328C17.5996 7.5028 17.4839 7.79862 17.4212 8.10676L19.6316 9.20985C19.6275 9.20649 19.6235 9.20309 19.6194 9.19964C19.5329 9.12553 19.4651 9.03205 19.4216 8.92681C19.378 8.82156 19.3598 8.70752 19.3686 8.59395C19.3774 8.48038 19.413 8.3703 19.4723 8.27302C20.9572 5.83386 18.1657 3.04382 15.7275 4.52919C15.6302 4.58853 15.5202 4.62405 15.4066 4.63286C15.2929 4.64167 15.1788 4.62352 15.0735 4.5799C14.9682 4.53627 14.8747 4.46839 14.8006 4.38178C14.7264 4.29518 14.6738 4.19202 14.6469 4.08124C13.9738 1.30643 10.027 1.30625 9.35342 4.08071L11.1558 4.98016C11.2132 4.84455 11.2606 4.70191 11.2969 4.55276Z" fill="black"/>
<path d="M8.27271 4.52759C5.83367 3.0433 3.04383 5.83421 4.5291 8.27226L6.16075 6.64015C6.23349 6.41574 6.4162 6.23295 6.64069 6.16007L8.27271 4.52759Z" fill="black"/>
<path d="M4.55286 11.2968L6.23692 7.23142C6.11509 7.03124 6.1018 6.82203 6.16075 6.64015L4.5291 8.27226C4.58844 8.36959 4.62416 8.47987 4.63297 8.59352C4.64178 8.70716 4.62363 8.82129 4.58 8.92659C4.53637 9.0319 4.46849 9.12542 4.38189 9.19954C4.29529 9.27366 4.19241 9.32628 4.08162 9.35312L4.08127 11.6598C4.16832 11.4901 4.32553 11.352 4.55286 11.2968Z" fill="black"/>
<path d="M6.62698 8.43891C6.59384 8.01144 6.46007 7.59752 6.23692 7.23142L4.55286 11.2968C4.96958 11.1958 5.35656 10.9978 5.68232 10.719C6.00816 10.4402 6.26355 10.0883 6.4277 9.6921C6.59186 9.29588 6.66014 8.86651 6.62698 8.43891Z" fill="black"/>
<path d="M4.08162 9.35312C1.30681 10.0263 1.30636 13.9731 4.08081 14.6467L4.08116 12.3402C3.97323 12.1297 3.97328 11.8704 4.08127 11.6598L4.08162 9.35312Z" fill="black"/>
<path d="M7.91754 6.53515L11.0247 5.24789C10.4148 6.33671 9.11954 6.87379 7.91754 6.53515Z" fill="black"/>
<path d="M12.7032 4.55248C12.8042 4.96919 13.0023 5.35645 13.2811 5.68222C13.5403 5.98513 13.8626 6.22715 14.225 6.3916L12.7032 4.55248Z" fill="black"/>
<path d="M17.3746 8.4396C17.3415 8.8669 17.4097 9.29598 17.5737 9.69195C17.7377 10.0879 17.9928 10.4396 18.3182 10.7185C18.5293 10.8993 18.7661 11.0461 19.02 11.1547L19.9189 9.35319C19.8135 9.32749 19.7154 9.27848 19.6316 9.20985L17.4212 8.10676C17.3989 8.21635 17.3833 8.3275 17.3746 8.4396Z" fill="black"/>
<path d="M12.8453 19.0203L14.6468 19.9193C14.6725 19.8138 14.7218 19.715 14.7906 19.6312L15.8164 17.5752L12.9783 18.7509C12.9291 18.8382 12.8846 18.9281 12.8453 19.0203Z" fill="black"/>
<path d="M15.5605 17.3745C15.1332 17.3414 14.7041 17.4096 14.3082 17.5736C13.9122 17.7376 13.5605 17.9926 13.2816 18.3181C13.1664 18.4527 13.0649 18.5977 12.9783 18.7509L15.8164 17.5752L15.8933 17.421C15.7837 17.3988 15.6726 17.3832 15.5605 17.3745Z" fill="black"/>
<path d="M6.23626 16.767L5.85643 15.5327L4.369 14.7905C4.37296 14.7937 4.37688 14.797 4.38077 14.8004C4.46728 14.8745 4.53507 14.9679 4.57865 15.0732C4.62223 15.1784 4.64036 15.2925 4.63157 15.4061C4.62278 15.5196 4.58732 15.6295 4.52806 15.7268C3.04308 18.166 5.83415 20.9564 8.27237 19.471C8.3697 19.4117 8.47998 19.3759 8.59362 19.3671C8.70727 19.3583 8.82139 19.3765 8.9267 19.4201C9.03201 19.4637 9.12553 19.5316 9.19965 19.6182C9.27376 19.7048 9.32639 19.8077 9.35323 19.9185C10.0264 22.6933 13.9732 22.6937 14.6468 19.9193L12.8453 19.0203C12.7865 19.1579 12.739 19.3004 12.7034 19.4467C12.5247 20.1836 11.476 20.1843 11.297 19.4475L8.43902 17.3731L7.23153 17.7632C6.58388 18.1573 5.84155 17.4157 6.23626 16.767Z" fill="black"/>
<path d="M9.69221 17.5724C9.29599 17.4082 8.86661 17.34 8.43902 17.3731L11.297 19.4475C11.196 19.0308 10.9979 18.6436 10.7191 18.3178C10.4403 17.9919 10.0884 17.7366 9.69221 17.5724Z" fill="black"/>
<path d="M5.68199 13.2815C5.48689 13.1144 5.26962 12.9762 5.03716 12.8705L5.85643 15.5327L6.57903 15.8933C6.60134 15.7837 6.61693 15.6725 6.62561 15.5604C6.65868 15.1331 6.59047 14.704 6.4265 14.308C6.26254 13.9121 6.00746 13.5604 5.68199 13.2815Z" fill="black"/>
<path d="M4.08116 12.3402L4.08081 14.6467C4.18652 14.6724 4.28501 14.7216 4.369 14.7905L5.85643 15.5327L5.03716 12.8705C4.88181 12.7999 4.71968 12.7438 4.55286 12.7032C4.32542 12.648 4.16819 12.51 4.08116 12.3402Z" fill="black"/>
<path d="M5.85643 15.5327L6.23626 16.767C6.40064 16.4971 6.51635 16.2014 6.57903 15.8933L5.85643 15.5327Z" fill="black"/>
<path d="M19.4476 12.7031C19.0309 12.8041 18.6437 13.0022 18.3179 13.281L19.4476 12.7031Z" fill="black"/>
<path d="M18.3179 13.281C17.9921 13.5598 17.7367 13.9117 17.5725 14.3079L18.3179 13.281Z" fill="black"/>
<path d="M19.4468 11.2967C20.1837 11.4755 20.1844 12.5241 19.4476 12.7031L18.3179 13.281L17.5725 14.3079L17.3732 15.5611L17.7633 16.7686C18.1574 17.4162 17.416 18.1587 16.7673 17.764C16.5523 17.633 16.321 17.5329 16.08 17.4659L15.8164 17.5752L14.7906 19.6312L14.8005 19.6193C14.8746 19.5328 14.9681 19.465 15.0733 19.4215C15.1785 19.3779 15.2926 19.3597 15.4062 19.3685C15.5197 19.3773 15.6298 19.4129 15.7271 19.4722C18.1662 20.9571 20.9563 18.1656 19.4709 15.7274C19.4116 15.6301 19.3761 15.5201 19.3672 15.4065C19.3584 15.2928 19.3766 15.1787 19.4202 15.0734C19.4638 14.9681 19.5317 14.8746 19.6183 14.8005C19.7049 14.7263 19.8081 14.6737 19.9189 14.6468C22.6937 13.9737 22.6933 10.0268 19.9189 9.35319L19.02 11.1547C19.1577 11.2135 19.3004 11.2611 19.4468 11.2967Z" fill="black"/>
<path d="M17.5725 14.3079C17.4084 14.7041 17.3401 15.1335 17.3732 15.5611L17.5725 14.3079Z" fill="black"/>
<path d="M17.3732 15.5611C17.4064 15.9887 17.54 16.4024 17.7633 16.7686L17.3732 15.5611Z" fill="black"/>
<path d="M15.8164 17.5752L16.08 17.4659C16.0184 17.4488 15.9561 17.4338 15.8933 17.421L15.8164 17.5752Z" fill="black"/>
<path fill-rule="evenodd" clip-rule="evenodd" d="M12.0001 10C10.8955 10 10.0001 10.8954 10.0001 12C10.0001 13.1046 10.8955 14 12.0001 14C13.1047 14 14.0001 13.1046 14.0001 12C14.0001 10.8954 13.1047 10 12.0001 10ZM8.00011 12C8.00011 9.79086 9.79097 8 12.0001 8C14.2092 8 16.0001 9.79086 16.0001 12C16.0001 14.2091 14.2092 16 12.0001 16C9.79097 16 8.00011 14.2091 8.00011 12Z" fill="black"/>
</svg>
