<svg width="24" height="24" viewBox="0 0 24 24" fill="none" xmlns="http://www.w3.org/2000/svg">
<path fill-rule="evenodd" clip-rule="evenodd" d="M4 8.99999C4 8.44771 4.44772 7.99999 5 7.99999H19C19.5523 7.99999 20 8.44771 20 8.99999C20 9.55228 19.5523 9.99999 19 9.99999H5C4.44772 9.99999 4 9.55228 4 8.99999Z" fill="black"/>
<path fill-rule="evenodd" clip-rule="evenodd" d="M4 15C4 14.4477 4.44772 14 5 14H19C19.5523 14 20 14.4477 20 15C20 15.5523 19.5523 16 19 16H5C4.44772 16 4 15.5523 4 15Z" fill="black"/>
<path fill-rule="evenodd" clip-rule="evenodd" d="M11.2425 3.02985C11.7783 3.1638 12.1041 3.70673 11.9701 4.24253L7.97014 20.2425C7.83619 20.7783 7.29326 21.1041 6.75746 20.9701C6.22167 20.8362 5.89591 20.2933 6.02986 19.7575L10.0299 3.75746C10.1638 3.22166 10.7067 2.8959 11.2425 3.02985Z" fill="black"/>
<path fill-rule="evenodd" clip-rule="evenodd" d="M17.2425 3.02985C17.7783 3.1638 18.1041 3.70673 17.9701 4.24253L13.9701 20.2425C13.8362 20.7783 13.2933 21.1041 12.7575 20.9701C12.2217 20.8362 11.8959 20.2933 12.0299 19.7575L16.0299 3.75746C16.1638 3.22166 16.7067 2.8959 17.2425 3.02985Z" fill="black"/>
</svg>
