<svg width="24" height="24" viewBox="0 0 24 24" fill="none" xmlns="http://www.w3.org/2000/svg">
<path d="M9 9C8.44772 9 8 9.44772 8 10C8 10.5523 8.44772 11 9 11H9.01C9.56228 11 10.01 10.5523 10.01 10C10.01 9.44772 9.56228 9 9.01 9H9Z" fill="black"/>
<path d="M14 10C14 9.44772 14.4477 9 15 9H15.01C15.5623 9 16.01 9.44772 16.01 10C16.01 10.5523 15.5623 11 15.01 11H15C14.4477 11 14 10.5523 14 10Z" fill="black"/>
<path d="M10.2143 14.3001C9.82777 13.9057 9.19464 13.8992 8.80015 14.2857C8.40566 14.6722 8.3992 15.3054 8.78571 15.6999C9.2047 16.1275 9.70481 16.4672 10.2567 16.6991C10.8087 16.9311 11.4013 17.0505 12 17.0505C12.5987 17.0505 13.1913 16.9311 13.7433 16.6991C14.2952 16.4672 14.7953 16.1275 15.2143 15.6999C15.6008 15.3054 15.5943 14.6722 15.1999 14.2857C14.8054 13.8992 14.1722 13.9057 13.7857 14.3001C13.5529 14.5377 13.2751 14.7265 12.9685 14.8553C12.6619 14.9841 12.3326 15.0505 12 15.0505C11.6674 15.0505 11.3381 14.9841 11.0315 14.8553C10.7249 14.7265 10.4471 14.5377 10.2143 14.3001Z" fill="black"/>
<path fill-rule="evenodd" clip-rule="evenodd" d="M12 2C6.47715 2 2 6.47715 2 12C2 17.5228 6.47715 22 12 22C17.5228 22 22 17.5228 22 12C22 6.47715 17.5228 2 12 2ZM4 12C4 7.58172 7.58172 4 12 4C16.4183 4 20 7.58172 20 12C20 16.4183 16.4183 20 12 20C7.58172 20 4 16.4183 4 12Z" fill="black"/>
</svg>
