<svg width="24" height="24" viewBox="0 0 24 24" fill="none" xmlns="http://www.w3.org/2000/svg">
<path d="M17.5858 5L9.29289 13.2929C8.90237 13.6834 8.90237 14.3166 9.29289 14.7071C9.68342 15.0976 10.3166 15.0976 10.7071 14.7071L19 6.41421V9C19 9.55228 19.4477 10 20 10C20.5523 10 21 9.55228 21 9V4.00098C21 4.00131 21 4.00065 21 4.00098C21 3.98498 20.9996 3.96801 20.9989 3.95203C20.9874 3.71232 20.8902 3.47595 20.7071 3.29289C20.6112 3.19702 20.5007 3.12468 20.3828 3.07588C20.2649 3.02699 20.1356 3 20 3H15C14.4477 3 14 3.44772 14 4C14 4.55228 14.4477 5 15 5H17.5858Z" fill="black"/>
<path d="M3.87868 6.87868C4.44129 6.31607 5.20435 6 6 6H11C11.5523 6 12 6.44772 12 7C12 7.55228 11.5523 8 11 8H6C5.73478 8 5.48043 8.10536 5.29289 8.29289C5.10536 8.48043 5 8.73478 5 9V18C5 18.2652 5.10536 18.5196 5.29289 18.7071C5.48043 18.8946 5.73478 19 6 19H15C15.2652 19 15.5196 18.8946 15.7071 18.7071C15.8946 18.5196 16 18.2652 16 18V13C16 12.4477 16.4477 12 17 12C17.5523 12 18 12.4477 18 13V18C18 18.7957 17.6839 19.5587 17.1213 20.1213C16.5587 20.6839 15.7957 21 15 21H6C5.20435 21 4.44129 20.6839 3.87868 20.1213C3.31607 19.5587 3 18.7956 3 18V9C3 8.20435 3.31607 7.44129 3.87868 6.87868Z" fill="black"/>
</svg>
