<svg width="24" height="24" viewBox="0 0 24 24" fill="none" xmlns="http://www.w3.org/2000/svg">
<path fill-rule="evenodd" clip-rule="evenodd" d="M11.2929 2.29289C11.6834 1.90237 12.3166 1.90237 12.7071 2.29289L21.7071 11.2929C21.9931 11.5789 22.0787 12.009 21.9239 12.3827C21.7691 12.7564 21.4045 13 21 13H20V19C20 19.7957 19.6839 20.5587 19.1213 21.1213C18.5587 21.6839 17.7957 22 17 22H7C6.20435 22 5.44129 21.6839 4.87868 21.1213C4.31607 20.5587 4 19.7957 4 19V13H3.00003C2.59557 13 2.23093 12.7564 2.07615 12.3827C1.92137 12.009 2.00692 11.5789 2.29292 11.2929L11.2929 2.29289ZM10 20H14V15C14 14.7348 13.8946 14.4804 13.7071 14.2929C13.5196 14.1054 13.2652 14 13 14H11C10.7348 14 10.4804 14.1054 10.2929 14.2929C10.1054 14.4804 10 14.7348 10 15V20ZM16 20V15C16 14.2043 15.6839 13.4413 15.1213 12.8787C14.5587 12.3161 13.7957 12 13 12H11C10.2043 12 9.44129 12.3161 8.87868 12.8787C8.31607 13.4413 8 14.2043 8 15V20H7C6.73478 20 6.48043 19.8946 6.29289 19.7071C6.10536 19.5196 6 19.2652 6 19V12.0077L6.00003 12C6.00003 11.5712 5.73013 11.2054 5.35094 11.0633L12 4.41421L18.6491 11.0633C18.596 11.0832 18.545 11.1075 18.4966 11.1358C18.1996 11.3092 18 11.6313 18 12V19C18 19.2652 17.8946 19.5196 17.7071 19.7071C17.5196 19.8946 17.2652 20 17 20H16Z" fill="black"/>
</svg>
