<svg width="24" height="24" viewBox="0 0 24 24" fill="none" xmlns="http://www.w3.org/2000/svg">
<path d="M9.37356 5.47759C11.1034 4.78101 13.0391 4.80013 14.7549 5.53076C16.4706 6.26139 17.8258 7.64367 18.5224 9.37351C19.219 11.1034 19.1999 13.0391 18.4692 14.7548C17.9446 15.9868 17.084 17.0329 16 17.7827V15C16 14.4477 15.5523 14 15 14C14.4477 14 14 14.4477 14 15V19.4273C13.9997 19.4426 13.9997 19.4579 14 19.4733V20C14 20.5523 14.4477 21 15 21H20C20.5523 21 21 20.5523 21 20C21 19.4477 20.5523 19 20 19H17.7066C18.8319 18.0826 19.7301 16.8987 20.3093 15.5384C21.2478 13.3346 21.2724 10.8483 20.3776 8.62644C19.4829 6.40455 17.7422 4.6291 15.5384 3.69065C13.3347 2.75221 10.8484 2.72764 8.62648 3.62236C8.11418 3.82866 7.86611 4.4112 8.07241 4.92351C8.2787 5.43582 8.86125 5.68389 9.37356 5.47759Z" fill="black"/>
<path d="M6.62988 7.15997C6.62988 6.60769 6.18217 6.15997 5.62988 6.15997C5.0776 6.15997 4.62988 6.60769 4.62988 7.15997V7.16997C4.62988 7.72226 5.0776 8.16997 5.62988 8.16997C6.18217 8.16997 6.62988 7.72226 6.62988 7.16997V7.15997Z" fill="black"/>
<path d="M4.06006 10C4.61234 10 5.06006 10.4477 5.06006 11V11.01C5.06006 11.5623 4.61234 12.01 4.06006 12.01C3.50777 12.01 3.06006 11.5623 3.06006 11.01V11C3.06006 10.4477 3.50777 10 4.06006 10Z" fill="black"/>
<path d="M5.62988 15.1C5.62988 14.5477 5.18217 14.1 4.62988 14.1C4.0776 14.1 3.62988 14.5477 3.62988 15.1V15.11C3.62988 15.6623 4.0776 16.11 4.62988 16.11C5.18217 16.11 5.62988 15.6623 5.62988 15.11V15.1Z" fill="black"/>
<path d="M7.15991 17.37C7.7122 17.37 8.15991 17.8177 8.15991 18.37V18.38C8.15991 18.9323 7.7122 19.38 7.15991 19.38C6.60763 19.38 6.15991 18.9323 6.15991 18.38V18.37C6.15991 17.8177 6.60763 17.37 7.15991 17.37Z" fill="black"/>
<path d="M12 19.9399C12 19.3877 11.5523 18.9399 11 18.9399C10.4477 18.9399 10 19.3877 10 19.9399V19.9499C10 20.5022 10.4477 20.9499 11 20.9499C11.5523 20.9499 12 20.5022 12 19.9499V19.9399Z" fill="black"/>
</svg>
