<svg width="24" height="24" viewBox="0 0 24 24" fill="none" xmlns="http://www.w3.org/2000/svg">
<path fill-rule="evenodd" clip-rule="evenodd" d="M8 18H4.00009C3.54593 18 3.14881 17.694 3.03309 17.2548C2.91738 16.8156 3.11214 16.3536 3.50734 16.1298C3.91604 15.8984 4.2647 15.5742 4.52523 15.1834C4.7754 14.8082 4.93762 14.3815 5.00009 13.9353V11C5.00009 10.9844 5.00046 10.9687 5.00119 10.9531C5.06926 9.50291 5.53068 8.09857 6.33599 6.8906C7.03645 5.83991 7.97412 4.97224 9.07008 4.35572C9.19216 3.80059 9.47057 3.28688 9.87877 2.87868C10.4414 2.31607 11.2044 2 12.0001 2C12.7957 2 13.5588 2.31607 14.1214 2.87868C14.5296 3.28688 14.808 3.80059 14.9301 4.35572C16.0261 4.97224 16.9637 5.83991 17.6642 6.8906C18.4695 8.09857 18.9309 9.50291 18.999 10.9531C18.9997 10.9687 19.0001 10.9844 19.0001 11V13.9354C19.0626 14.3815 19.2248 14.8082 19.475 15.1834C19.7355 15.5742 20.0841 15.8984 20.4928 16.1298C20.888 16.3536 21.0828 16.8156 20.9671 17.2548C20.8514 17.694 20.4542 18 20.0001 18H16C16 19.0609 15.5786 20.0783 14.8284 20.8284C14.0783 21.5786 13.0609 22 12 22C10.9391 22 9.92172 21.5786 9.17157 20.8284C8.42143 20.0783 8 19.0609 8 18ZM11.293 4.29289C11.4805 4.10536 11.7349 4 12.0001 4C12.2653 4 12.5197 4.10536 12.7072 4.29289C12.8947 4.48043 13.0001 4.73478 13.0001 5C13.0001 5.38669 13.223 5.73873 13.5726 5.90403C14.557 6.36948 15.3961 7.09402 16.0001 8C16.5999 8.89972 16.9453 9.9447 17.0001 11.0244V14C17.0001 14.0402 17.0025 14.0803 17.0073 14.1202C17.0876 14.7832 17.2997 15.4222 17.6299 16H6.37031C6.70049 15.4222 6.91259 14.7832 6.99285 14.1202C6.99767 14.0803 7.00009 14.0402 7.00009 14V11.0244C7.05484 9.94469 7.40028 8.89972 8.00009 8C8.60026 7.09974 9.43263 6.37863 10.4089 5.91287C10.4566 5.89148 10.5023 5.86646 10.5457 5.83816C10.669 5.75812 10.7699 5.65398 10.845 5.53509C10.9485 5.37135 11.0032 5.17963 11.0002 4.98434C11.0043 4.72479 11.1091 4.47674 11.293 4.29289ZM14 18C14 18.5304 13.7893 19.0391 13.4142 19.4142C13.0391 19.7893 12.5304 20 12 20C11.4696 20 10.9609 19.7893 10.5858 19.4142C10.2107 19.0391 10 18.5304 10 18H14Z" fill="black"/>
</svg>
