<svg width="24" height="24" viewBox="0 0 24 24" fill="none" xmlns="http://www.w3.org/2000/svg">
<path fill-rule="evenodd" clip-rule="evenodd" d="M12 2C9.23858 2 7 4.23858 7 7C7 9.76142 9.23858 12 12 12C14.7614 12 17 9.76142 17 7C17 4.23858 14.7614 2 12 2ZM9 7C9 5.34315 10.3431 4 12 4C13.6569 4 15 5.34315 15 7C15 8.65685 13.6569 10 12 10C10.3431 10 9 8.65685 9 7Z" fill="black"/>
<path d="M7.87868 16.8787C8.44129 16.3161 9.20435 16 10 16H14C14.7956 16 15.5587 16.3161 16.1213 16.8787C16.6839 17.4413 17 18.2044 17 19V21C17 21.5523 17.4477 22 18 22C18.5523 22 19 21.5523 19 21V19C19 17.6739 18.4732 16.4021 17.5355 15.4645C16.5979 14.5268 15.3261 14 14 14H10C8.67392 14 7.40215 14.5268 6.46447 15.4645C5.52678 16.4021 5 17.6739 5 19V21C5 21.5523 5.44772 22 6 22C6.55228 22 7 21.5523 7 21V19C7 18.2043 7.31607 17.4413 7.87868 16.8787Z" fill="black"/>
</svg>
