<svg width="24" height="24" viewBox="0 0 24 24" fill="none" xmlns="http://www.w3.org/2000/svg">
<path d="M10 16C10 14.8954 10.8954 14 12 14C13.1046 14 14 14.8954 14 16C14 17.1046 13.1046 18 12 18C10.8954 18 10 17.1046 10 16Z" fill="black"/>
<path fill-rule="evenodd" clip-rule="evenodd" d="M7 10V7C7 5.67392 7.52678 4.40215 8.46447 3.46447C9.40215 2.52678 10.6739 2 12 2C13.3261 2 14.5979 2.52678 15.5355 3.46447C16.4732 4.40215 17 5.67392 17 7V10C18.6569 10 20 11.3431 20 13V19C20 20.6569 18.6569 22 17 22H7C5.34315 22 4 20.6569 4 19V13C4 11.3431 5.34315 10 7 10ZM9.87868 4.87868C10.4413 4.31607 11.2044 4 12 4C12.7956 4 13.5587 4.31607 14.1213 4.87868C14.6839 5.44129 15 6.20435 15 7V10H9V7C9 6.20435 9.31607 5.44129 9.87868 4.87868ZM17 12C17.5523 12 18 12.4477 18 13V19C18 19.5523 17.5523 20 17 20H7C6.44772 20 6 19.5523 6 19V13C6 12.4477 6.44772 12 7 12H17Z" fill="black"/>
</svg>
