<svg width="24" height="24" viewBox="0 0 24 24" fill="none" xmlns="http://www.w3.org/2000/svg">
<path fill-rule="evenodd" clip-rule="evenodd" d="M5 5C4.73478 5 4.48043 5.10536 4.29289 5.29289C4.11141 5.47438 4.00688 5.71844 4.00033 5.97437C4.23032 9.6183 5.78159 13.0537 8.36394 15.6361C10.9463 18.2184 14.3817 19.7697 18.0256 19.9997C18.2816 19.9931 18.5256 19.8886 18.7071 19.7071C18.8946 19.5196 19 19.2652 19 19V15.677L15.4193 14.2448L14.3575 16.0145C14.0897 16.4608 13.5244 16.6271 13.0577 16.3969C10.6887 15.2285 8.77146 13.3113 7.60314 10.9423C7.37294 10.4756 7.53924 9.91027 7.9855 9.64251L9.75523 8.58067L8.32297 5H5ZM2.87868 3.87868C3.44129 3.31607 4.20435 3 5 3H9C9.4089 3 9.77661 3.24895 9.92848 3.62861L11.9285 8.62861C12.1108 9.08432 11.9354 9.60497 11.5145 9.85749L9.8405 10.8619C10.6644 12.2055 11.7945 13.3356 13.1381 14.1595L14.1425 12.4855C14.395 12.0646 14.9157 11.8892 15.3714 12.0715L20.3714 14.0715C20.751 14.2234 21 14.5911 21 15V19C21 19.7957 20.6839 20.5587 20.1213 21.1213C19.5587 21.6839 18.7957 22 18 22C17.9798 22 17.9595 21.9994 17.9393 21.9982C13.7948 21.7463 9.88576 19.9863 6.94972 17.0503C4.01369 14.1142 2.25371 10.2052 2.00184 6.06066C2.00061 6.04046 2 6.02023 2 6C2 5.20435 2.31607 4.44129 2.87868 3.87868Z" fill="black"/>
<path fill-rule="evenodd" clip-rule="evenodd" d="M14 7C14 6.44772 14.4477 6 15 6C15.7956 6 16.5587 6.31607 17.1213 6.87868C17.6839 7.44129 18 8.20435 18 9C18 9.55228 17.5523 10 17 10C16.4477 10 16 9.55228 16 9C16 8.73478 15.8946 8.48043 15.7071 8.29289C15.5196 8.10536 15.2652 8 15 8C14.4477 8 14 7.55228 14 7Z" fill="black"/>
<path fill-rule="evenodd" clip-rule="evenodd" d="M14 3C14 2.44772 14.4477 2 15 2C16.8565 2 18.637 2.7375 19.9497 4.05025C21.2625 5.36301 22 7.14349 22 9C22 9.55228 21.5523 10 21 10C20.4477 10 20 9.55228 20 9C20 7.67392 19.4732 6.40215 18.5355 5.46447C17.5979 4.52678 16.3261 4 15 4C14.4477 4 14 3.55228 14 3Z" fill="black"/>
</svg>
