<svg width="24" height="24" viewBox="0 0 24 24" fill="none" xmlns="http://www.w3.org/2000/svg">
<path fill-rule="evenodd" clip-rule="evenodd" d="M9.46944 5.01208C8.80934 4.27863 8.12408 3.98923 7.51742 3.9998L7.5 3.99996C7.10218 3.99996 6.72064 4.15799 6.43934 4.4393C6.15804 4.7206 6 5.10213 6 5.49996C6 5.89778 6.15804 6.27931 6.43934 6.56062C6.72064 6.84192 7.10218 6.99996 7.5 6.99996H10.6419C10.3251 6.18852 9.92148 5.51434 9.46944 5.01208ZM11 8.99996V11L5 11L4 11V8.99996H11ZM4.33772 6.99996C4.11743 6.53553 4 6.0238 4 5.49996C4 4.5717 4.36875 3.68146 5.02513 3.02508C5.67943 2.37078 6.56612 2.00229 7.4912 1.99997C8.81053 1.97987 10.0128 2.62608 10.956 3.67415C11.3497 4.11155 11.6987 4.61777 12 5.17652C12.3013 4.61777 12.6503 4.11155 13.044 3.67415C13.9872 2.62608 15.1895 1.97987 16.5088 1.99997C17.4339 2.00229 18.3206 2.37078 18.9749 3.02508C19.6312 3.68146 20 4.5717 20 5.49996C20 6.0238 19.8826 6.53553 19.6623 6.99996H20C21.1046 6.99996 22 7.89539 22 8.99996V11C22 12.1045 21.1046 13 20 13V19C20 19.7956 19.6839 20.5587 19.1213 21.1213C18.5587 21.6839 17.7957 22 17 22H7C6.20435 22 5.44129 21.6839 4.87868 21.1213C4.31607 20.5587 4 19.7956 4 19V13C2.89543 13 2 12.1045 2 11V8.99996C2 7.89539 2.89543 6.99996 4 6.99996H4.33772ZM6 13V19C6 19.2652 6.10536 19.5195 6.29289 19.7071C6.48043 19.8946 6.73478 20 7 20H11V13H6ZM13 13V20H17C17.2652 20 17.5196 19.8946 17.7071 19.7071C17.8946 19.5195 18 19.2652 18 19V13H13ZM19 11L20 11V8.99996H13V11L19 11ZM16.5 6.99996C16.8978 6.99996 17.2794 6.84192 17.5607 6.56062C17.842 6.27931 18 5.89778 18 5.49996C18 5.10213 17.842 4.7206 17.5607 4.4393C17.2794 4.15799 16.8978 3.99996 16.5 3.99996L16.4826 3.9998C15.8759 3.98923 15.1907 4.27863 14.5306 5.01208C14.0785 5.51434 13.6749 6.18852 13.3581 6.99996H16.5Z" fill="black"/>
</svg>
