<svg width="24" height="24" viewBox="0 0 24 24" fill="none" xmlns="http://www.w3.org/2000/svg">
<path fill-rule="evenodd" clip-rule="evenodd" d="M12 9C10.3431 9 9 10.3431 9 12C9 13.6569 10.3431 15 12 15C13.6569 15 15 13.6569 15 12C15 10.3431 13.6569 9 12 9ZM11 12C11 11.4477 11.4477 11 12 11C12.5523 11 13 11.4477 13 12C13 12.5523 12.5523 13 12 13C11.4477 13 11 12.5523 11 12Z" fill="black"/>
<path fill-rule="evenodd" clip-rule="evenodd" d="M12 4C7.51999 4 3.9072 6.64709 1.13177 11.5038C0.956077 11.8113 0.956077 12.1887 1.13177 12.4962C3.9072 17.3529 7.51999 20 12 20C16.48 20 20.0928 17.3529 22.8682 12.4962C23.0439 12.1887 23.0439 11.8113 22.8682 11.5038C20.0928 6.64709 16.48 4 12 4ZM12 18C8.61278 18 5.65779 16.1305 3.15986 12C5.65779 7.86948 8.61278 6 12 6C15.3872 6 18.3422 7.86948 20.8401 12C18.3422 16.1305 15.3872 18 12 18Z" fill="black"/>
</svg>
